<?xml version="1.0" encoding="UTF-8" standalone="no"?>
<svg
   width="64"
   height="64"
   version="1.1"
   viewBox="0 0 16.933 16.933"
   id="svg62"
   sodipodi:docname="blank.svg"
   inkscape:version="1.3.2 (091e20ef0f, 2023-11-25, custom)"
   xml:space="preserve"
   inkscape:export-filename="wechat.svg"
   inkscape:export-xdpi="96"
   inkscape:export-ydpi="96"
   xmlns:inkscape="http://www.inkscape.org/namespaces/inkscape"
   xmlns:sodipodi="http://sodipodi.sourceforge.net/DTD/sodipodi-0.dtd"
   xmlns="http://www.w3.org/2000/svg"
   xmlns:svg="http://www.w3.org/2000/svg"
   xmlns:rdf="http://www.w3.org/1999/02/22-rdf-syntax-ns#"
   xmlns:cc="http://creativecommons.org/ns#"
   xmlns:dc="http://purl.org/dc/elements/1.1/"><sodipodi:namedview
     pagecolor="#ffffff"
     bordercolor="#666666"
     borderopacity="1"
     objecttolerance="10"
     gridtolerance="10"
     guidetolerance="10"
     inkscape:pageopacity="0"
     inkscape:pageshadow="2"
     inkscape:window-width="1920"
     inkscape:window-height="1080"
     id="namedview64"
     showgrid="false"
     inkscape:zoom="7.9739944"
     inkscape:cx="11.537505"
     inkscape:cy="45.021351"
     inkscape:window-x="0"
     inkscape:window-y="0"
     inkscape:window-maximized="1"
     inkscape:current-layer="svg62"
     inkscape:showpageshadow="0"
     inkscape:pagecheckerboard="1"
     inkscape:deskcolor="#505050" /><defs
     id="defs15"><linearGradient
       id="linearGradient2"
       x1="-127"
       x2="-72"
       y1="60"
       y2="5"
       gradientTransform="matrix(0.26457812,0,0,0.26457812,34.792022,-0.1349349)"
       gradientUnits="userSpaceOnUse"><stop
         stop-color="#32d7ff"
         offset="0"
         id="stop1"
         style="stop-color:#00e36d;stop-opacity:1;" /><stop
         stop-color="#329bff"
         offset="1"
         id="stop2"
         style="stop-color:#05c361;stop-opacity:1;" /></linearGradient><filter
       id="filter2761"
       x="-.024"
       y="-.024"
       width="1.048"
       height="1.048"
       color-interpolation-filters="sRGB"><feGaussianBlur
         stdDeviation="0.14552168"
         id="feGaussianBlur2" /></filter><linearGradient
       id="linearGradient1024"
       x1="1.3315"
       x2="15.65"
       y1="15.576"
       y2="1.17"
       gradientUnits="userSpaceOnUse"
       gradientTransform="translate(1.1902151,-4.762997)"><stop
         stop-color="#00c8ff"
         offset="0"
         id="stop5" /><stop
         stop-color="#14a0ff"
         offset="1"
         id="stop7" /></linearGradient><linearGradient
       id="linearGradient968"
       x1=".22195"
       x2="25.798"
       y1="31.117"
       y2="-.031267"
       gradientUnits="userSpaceOnUse"><stop
         stop-color="#fafaff"
         offset="0"
         id="stop10" /><stop
         stop-color="#7dd7ff"
         offset="1"
         id="stop12" /></linearGradient><style
       type="text/css"
       id="style841" /><filter
       id="filter1057"
       x="-0.026999999"
       y="-0.026999999"
       width="1.054"
       height="1.054"
       color-interpolation-filters="sRGB"><feGaussianBlur
         stdDeviation="0.61875"
         id="feGaussianBlur843" /></filter><linearGradient
       id="linearGradient1053"
       x1="-127"
       x2="-72"
       y1="60"
       y2="5"
       gradientTransform="matrix(0.26457812,0,0,0.26457812,34.792022,-0.1349349)"
       gradientUnits="userSpaceOnUse"><stop
         stop-color="#32d7ff"
         offset="0"
         id="stop846"
         style="stop-color:#ffffff;stop-opacity:1;" /><stop
         stop-color="#329bff"
         offset="1"
         id="stop848"
         style="stop-color:#ffffff;stop-opacity:1;" /></linearGradient><style
       type="text/css"
       id="style851" /><style
       type="text/css"
       id="style853" /><style
       type="text/css"
       id="style855" /><style
       type="text/css"
       id="style857" /><style
       type="text/css"
       id="style859" /><style
       type="text/css"
       id="style861" /><style
       type="text/css"
       id="style863" /><style
       id="style1">.cls-1{fill:none;}.cls-2{fill:#4e4e4e;}.cls-3{clip-path:url(#clip-path);}.cls-4{fill:url(#未命名的渐变_3);}.cls-5{clip-path:url(#clip-path-2);}.cls-6{fill:url(#未命名的渐变_30);}.cls-7{fill:#227b3d;}.cls-8{fill:#8c8c8c;}</style><clipPath
       id="clip-path"
       transform="translate(0 0)"><path
         class="cls-1"
         d="M0,25.08c0,7.56,4.06,14.37,10.4,19a2,2,0,0,1,.85,1.64,2.32,2.32,0,0,1-.11.64c-.5,1.89-1.32,4.92-1.35,5.06a2.67,2.67,0,0,0-.17.73,1,1,0,0,0,1,1,1.2,1.2,0,0,0,.58-.18l6.59-3.81a3.23,3.23,0,0,1,1.6-.46,3.3,3.3,0,0,1,.89.13,35.37,35.37,0,0,0,9.83,1.38c16.63,0,30.11-11.23,30.11-25.09S46.75,0,30.12,0,0,11.23,0,25.08"
         id="path1" /></clipPath><linearGradient
       id="未命名的渐变_3"
       x1="-159.05"
       y1="793.45"
       x2="-158.12"
       y2="793.45"
       gradientTransform="matrix(0,-50.19,50.19,0,-39793.37,-7921.57)"
       gradientUnits="userSpaceOnUse"><stop
         offset="0"
         stop-color="#7bc142"
         id="stop1-5" /><stop
         offset="0.03"
         stop-color="#7bc142"
         id="stop2-3" /><stop
         offset="0.96"
         stop-color="#a7d168"
         id="stop3" /><stop
         offset="1"
         stop-color="#a7d168"
         id="stop4" /></linearGradient><clipPath
       id="clip-path-2"
       transform="translate(0 0)"><path
         class="cls-1"
         d="M33,43.71c0,11.53,11.23,20.88,25.08,20.88a29.57,29.57,0,0,0,8.19-1.14,2.55,2.55,0,0,1,.74-.11,2.7,2.7,0,0,1,1.33.38l5.49,3.17a.92.92,0,0,0,.48.16.85.85,0,0,0,.84-.84A2.69,2.69,0,0,0,75,65.6l-1.13-4.21a2,2,0,0,1-.09-.53,1.68,1.68,0,0,1,.71-1.37c5.28-3.82,8.66-9.49,8.66-15.78,0-11.54-11.23-20.89-25.08-20.89S33,32.17,33,43.71"
         id="path4" /></clipPath><linearGradient
       id="未命名的渐变_30"
       x1="-159.24"
       y1="793.37"
       x2="-158.31"
       y2="793.37"
       gradientTransform="matrix(0,-47.44,47.44,0,-37578.96,-7487.13)"
       gradientUnits="userSpaceOnUse"><stop
         offset="0"
         stop-color="#d3d3d3"
         id="stop5-5" /><stop
         offset="0"
         stop-color="#e4e7e8"
         id="stop6" /><stop
         offset="1"
         stop-color="#f1f0f0"
         id="stop7-6" /></linearGradient></defs><metadata
     id="metadata17"><rdf:RDF><cc:Work
         rdf:about=""><dc:format>image/svg+xml</dc:format><dc:type
           rdf:resource="http://purl.org/dc/dcmitype/StillImage" /><dc:title /></cc:Work></rdf:RDF></metadata><rect
     x="4.5"
     y="4.5"
     width="55"
     height="55"
     ry="15"
     fill="#141414"
     filter="url(#filter1057)"
     opacity="0.3"
     stroke-linecap="round"
     stroke-width="2.7444"
     id="rect879"
     transform="scale(0.26457812)" /><rect
     x="1.1906016"
     y="1.1906016"
     width="14.551797"
     height="14.551797"
     ry="3.9686718"
     fill="url(#linearGradient1053)"
     stroke-linecap="round"
     stroke-width="0.726108"
     id="rect881"
     style="display:inline;fill:url(#linearGradient1053)" /></svg>
