<?xml version="1.0" encoding="UTF-8" standalone="no"?>
<svg
   width="64"
   height="64"
   version="1.1"
   viewBox="0 0 16.933 16.933"
   id="svg62"
   xml:space="preserve"
   xmlns:xlink="http://www.w3.org/1999/xlink"
   xmlns="http://www.w3.org/2000/svg"
   xmlns:svg="http://www.w3.org/2000/svg"
   xmlns:rdf="http://www.w3.org/1999/02/22-rdf-syntax-ns#"
   xmlns:cc="http://creativecommons.org/ns#"
   xmlns:dc="http://purl.org/dc/elements/1.1/"><defs
     id="defs15"><style
       type="text/css"
       id="style841" /><filter
       id="filter1057"
       x="-0.026999999"
       y="-0.026999999"
       width="1.054"
       height="1.054"
       color-interpolation-filters="sRGB"><feGaussianBlur
         stdDeviation="0.61875"
         id="feGaussianBlur843" /></filter><linearGradient
       id="linearGradient1053"
       x1="-127"
       x2="-72"
       y1="60"
       y2="5"
       gradientTransform="matrix(0.26457812,0,0,0.26457812,34.792022,-0.1349349)"
       gradientUnits="userSpaceOnUse"><stop
         stop-color="#32d7ff"
         offset="0"
         id="stop846"
         style="stop-color:#ffb0c0;stop-opacity:1;" /><stop
         stop-color="#329bff"
         offset="1"
         id="stop848"
         style="stop-color:#fff1cf;stop-opacity:1;" /></linearGradient><style
       type="text/css"
       id="style851" /><style
       type="text/css"
       id="style853" /><style
       type="text/css"
       id="style855" /><style
       type="text/css"
       id="style857" /><style
       type="text/css"
       id="style859" /><style
       type="text/css"
       id="style861" /><style
       type="text/css"
       id="style863" /><style
       id="style1">.cls-1{fill:none;}.cls-2{fill:#4e4e4e;}.cls-3{clip-path:url(#clip-path);}.cls-4{fill:url(#未命名的渐变_3);}.cls-5{clip-path:url(#clip-path-2);}.cls-6{fill:url(#未命名的渐变_30);}.cls-7{fill:#227b3d;}.cls-8{fill:#8c8c8c;}</style><linearGradient
       xlink:href="#linearGradient330"
       id="linearGradient329"
       x1="3.1297143"
       y1="12.841759"
       x2="12.807171"
       y2="3.6807411"
       gradientUnits="userSpaceOnUse"
       gradientTransform="translate(0.54766589,0.08949715)" /><linearGradient
       id="linearGradient330"
       x1="4.5"
       x2="59.5"
       y1="59.5"
       y2="4.5"
       gradientTransform="matrix(0.26458,0,0,0.26458,10.85,6.5804)"
       gradientUnits="userSpaceOnUse"><stop
         stop-color="#055096"
         offset="0"
         id="stop329"
         style="stop-color:#ee1c81;stop-opacity:1;" /><stop
         stop-color="#0587eb"
         offset="1"
         id="stop330"
         style="stop-color:#ffae3e;stop-opacity:1;" /></linearGradient></defs><metadata
     id="metadata17"><rdf:RDF><cc:Work
         rdf:about=""><dc:format>image/svg+xml</dc:format><dc:type
           rdf:resource="http://purl.org/dc/dcmitype/StillImage" /><dc:title /></cc:Work></rdf:RDF></metadata><rect
     x="4.5"
     y="4.5"
     width="55"
     height="55"
     ry="15"
     fill="#141414"
     filter="url(#filter1057)"
     opacity="0.3"
     stroke-linecap="round"
     stroke-width="2.7444"
     id="rect879"
     transform="scale(0.26457812)"
     rx="15" /><rect
     x="1.1906016"
     y="1.1906016"
     width="14.551797"
     height="14.551797"
     ry="3.9686718"
     fill="url(#linearGradient1053)"
     stroke-linecap="round"
     stroke-width="0.726108"
     id="rect881"
     style="display:inline;fill:url(#linearGradient1053)"
     rx="3.9686718" /><path
     style="fill:url(#linearGradient329)"
     d="M 6.7754737,13.080462 C 5.6507455,13.018162 4.6301329,12.840982 4.3330505,12.656453 3.4445703,12.104585 3.4086175,10.825247 4.2663717,10.28377 4.8376036,9.923168 5.2321681,10.095493 4.726388,10.484681 c -0.4327918,0.333026 -0.5460838,0.506253 -0.5415289,0.828014 0.00783,0.553463 0.3724263,0.895128 1.0097887,0.946289 0.3519842,0.02825 0.3883735,-6.04e-4 0.389495,-0.30888 4.011e-4,-0.110251 0.021955,-0.356706 0.047898,-0.547677 0.025943,-0.19097 0.080671,-0.647251 0.1216191,-1.013956 C 6.118029,7.1253954 6.5991406,4.0764425 6.78501,3.8524836 6.9159518,3.6947083 7.2857796,4.063852 7.7075529,4.77332 c 0.378522,0.6367144 0.35756,0.6214995 0.748566,0.5433354 0.403716,-0.080705 1.6419021,-0.071901 2.0455491,0.014545 0.321075,0.068762 0.321075,0.068762 0.5714,-0.4039557 0.34826,-0.657657 0.664628,-1.110895 0.775424,-1.110895 0.124168,0 0.277153,0.588616 0.495111,1.9049625 0.02602,0.1571594 0.08112,0.4786219 0.122445,0.714361 0.04132,0.2357391 0.118488,0.7179327 0.171478,1.0715414 0.05299,0.3536084 0.127278,0.8465174 0.165085,1.0953534 0.314207,2.068051 0.551365,4.253359 0.469922,4.330128 -0.145104,0.136777 -4.7887731,0.24239 -6.4970593,0.147766 z M 9.3553289,8.476127 c 0.08104,-0.07334 0.09314,-0.07334 0.174184,0 0.09663,0.08745 0.27943,0.102099 0.389149,0.03119 0.07823,-0.05056 0.04297,-0.06205 -0.15153,-0.04942 -0.07452,0.0048 -0.168746,-0.03273 -0.226214,-0.0902 -0.0985,-0.0985 -0.0985,-0.0985 -0.193745,-0.0032 -0.05956,0.05957 -0.158747,0.09525 -0.264743,0.09525 -0.100869,0 -0.157578,0.01928 -0.140061,0.04762 0.04678,0.07569 0.31745,0.05524 0.41296,-0.03119 z M 8.0486229,7.746946 C 8.4519789,7.371163 7.9293789,6.7803562 7.5115399,7.1397664 7.2342467,7.378284 7.4199599,7.840584 7.7930669,7.840584 c 0.08833,0 0.198297,-0.04029 0.255556,-0.09364 z M 11.516233,7.723688 c 0.126365,-0.1263652 0.149641,-0.3041252 0.06149,-0.4696302 -0.202497,-0.3802034 -0.754206,-0.2472728 -0.754206,0.1817211 0,0.1180714 0.03619,0.2072021 0.116896,0.2879091 0.158837,0.1588306 0.417013,0.1588066 0.575818,0 z"
     id="path328" /></svg>
