<?xml version="1.0" encoding="UTF-8" standalone="no"?>
<!-- Created with Inkscape (http://www.inkscape.org/) -->

<svg
   width="64"
   height="64"
   version="1.1"
   viewBox="0 0 16.933 16.933"
   id="svg3"
   xml:space="preserve"
   xmlns:xlink="http://www.w3.org/1999/xlink"
   xmlns="http://www.w3.org/2000/svg"
   xmlns:svg="http://www.w3.org/2000/svg"><defs
     id="defs2"><linearGradient
       id="linearGradient330"
       x1="4.5"
       x2="59.5"
       y1="59.5"
       y2="4.5"
       gradientTransform="matrix(0.26458,0,0,0.26458,10.85,6.5804)"
       gradientUnits="userSpaceOnUse"><stop
         stop-color="#055096"
         offset="0"
         id="stop329"
         style="stop-color:#0e0e7c;stop-opacity:1;" /><stop
         stop-color="#0587eb"
         offset="0.83475786"
         id="stop330"
         style="stop-color:#649ff1;stop-opacity:1;" /></linearGradient><filter
       id="filter2076"
       x="-0.048000001"
       y="-0.048000001"
       width="1.096"
       height="1.096"
       color-interpolation-filters="sRGB"><feGaussianBlur
         stdDeviation="1.1"
         id="feGaussianBlur1" /></filter><linearGradient
       id="linearGradient1502"
       x1="4.5"
       x2="59.5"
       y1="59.5"
       y2="4.5"
       gradientTransform="matrix(0.26458,0,0,0.26458,10.85,6.5804)"
       gradientUnits="userSpaceOnUse"><stop
         stop-color="#055096"
         offset="0"
         id="stop1"
         style="stop-color:#ffffff;stop-opacity:1;" /><stop
         stop-color="#0587eb"
         offset="0.76103896"
         id="stop2"
         style="stop-color:#ffffff;stop-opacity:1;" /></linearGradient><linearGradient
       xlink:href="#linearGradient330"
       id="linearGradient329"
       x1="3.1297143"
       y1="12.841759"
       x2="12.807171"
       y2="3.6807411"
       gradientUnits="userSpaceOnUse" /></defs><g
     transform="translate(-10.85,-6.5804)"
     id="g3"><rect
       transform="matrix(0.26458,0,0,0.26458,10.85,6.5804)"
       x="4.5"
       y="4.5"
       width="55"
       height="55"
       rx="13.002"
       ry="13.002"
       filter="url(#filter2076)"
       opacity="0.3"
       id="rect2" /><path
       d="m 15.481,7.7711 c -1.9058,0 -3.44,1.5342 -3.44,3.44 v 7.6717 c 0,1.9058 1.5342,3.44 3.44,3.44 h 7.6717 c 1.9058,0 3.44,-1.5342 3.44,-3.44 v -7.6717 c 0,-1.9058 -1.5342,-3.44 -3.44,-3.44 z"
       fill="url(#linearGradient1502)"
       stroke-linecap="round"
       stroke-linejoin="round"
       stroke-width="0.53299"
       style="display:inline;fill:url(#linearGradient1502);paint-order:stroke fill markers"
       id="path2" /><g
       id="layer1"
       transform="translate(10.85,6.5804)"><path
         style="display:inline;fill:url(#linearGradient329)"
         d="M 6.2278078,12.990965 C 5.1030796,12.928665 4.082467,12.751485 3.7853846,12.566956 2.8969044,12.015088 2.8609516,10.73575 3.7187058,10.194273 4.2899377,9.8336704 4.6845022,10.005996 4.1787221,10.395184 3.7459303,10.72821 3.6326383,10.901437 3.6371932,11.223198 c 0.00783,0.553463 0.3724263,0.895128 1.0097887,0.946289 0.3519842,0.02825 0.3883735,-6.04e-4 0.389495,-0.30888 4.011e-4,-0.110251 0.021955,-0.356706 0.047898,-0.547677 0.025943,-0.19097 0.080671,-0.647251 0.1216191,-1.013956 C 5.5703631,7.0358983 6.0514747,3.9869454 6.2373441,3.7629865 6.3682859,3.6052112 6.7381137,3.9743549 7.159887,4.6838229 c 0.3785219,0.6367144 0.3575601,0.6214995 0.7485655,0.5433354 0.4037165,-0.080705 1.6419028,-0.071901 2.04555,0.014545 0.3210745,0.068762 0.3210745,0.068762 0.5713995,-0.4039557 0.34826,-0.657657 0.664628,-1.110895 0.775424,-1.110895 0.124168,0 0.277153,0.588616 0.495111,1.9049625 0.02602,0.1571594 0.08112,0.4786219 0.122445,0.714361 0.04132,0.2357391 0.118488,0.7179327 0.171478,1.0715414 0.05299,0.3536087 0.127278,0.8465177 0.165085,1.0953535 0.314207,2.068051 0.551365,4.253359 0.469922,4.330128 -0.145104,0.136777 -4.7887729,0.24239 -6.4970592,0.147766 z M 8.8076633,8.3866301 c 0.08104,-0.07334 0.093144,-0.07334 0.1741841,0 0.096627,0.087446 0.2794297,0.1020989 0.3891486,0.031193 0.078228,-0.050555 0.042971,-0.062054 -0.1515297,-0.049422 -0.074517,0.00484 -0.1687464,-0.032734 -0.2262143,-0.090202 -0.098497,-0.098497 -0.098497,-0.098497 -0.1937448,-0.00325 -0.059565,0.059565 -0.1587469,0.095248 -0.264743,0.095248 -0.1008694,0 -0.1575778,0.019282 -0.1400616,0.047624 0.046778,0.075688 0.3174505,0.055242 0.4129607,-0.031193 z M 7.5009568,7.6574493 C 7.904313,7.2816659 7.3817132,6.6908591 6.963874,7.0502693 6.6865808,7.2887869 6.8722922,7.7510864 7.2454008,7.7510864 c 0.088331,0 0.198297,-0.040292 0.255556,-0.093637 z m 3.4676102,-0.023258 c 0.126365,-0.1263652 0.149641,-0.3041252 0.06149,-0.4696302 -0.202497,-0.3802034 -0.754206,-0.2472728 -0.754206,0.1817211 0,0.1180714 0.03619,0.2072021 0.116896,0.2879091 0.158837,0.1588307 0.417013,0.1588062 0.575818,0 z"
         id="path328" /></g></g></svg>
