<?xml version="1.0" encoding="UTF-8" standalone="no"?>
<svg
   width="64"
   height="64"
   version="1.1"
   viewBox="0 0 64 64"
   id="svg4"
   xml:space="preserve"
   sodipodi:docname="discover.svg"
   inkscape:version="1.3.2 (091e20ef0f, 2023-11-25, custom)"
   xmlns:inkscape="http://www.inkscape.org/namespaces/inkscape"
   xmlns:sodipodi="http://sodipodi.sourceforge.net/DTD/sodipodi-0.dtd"
   xmlns="http://www.w3.org/2000/svg"
   xmlns:svg="http://www.w3.org/2000/svg"><sodipodi:namedview
     id="namedview1"
     pagecolor="#505050"
     bordercolor="#ffffff"
     borderopacity="1"
     inkscape:showpageshadow="0"
     inkscape:pageopacity="0"
     inkscape:pagecheckerboard="1"
     inkscape:deskcolor="#505050"
     inkscape:zoom="10.90625"
     inkscape:cx="32"
     inkscape:cy="31.954155"
     inkscape:window-width="1361"
     inkscape:window-height="939"
     inkscape:window-x="0"
     inkscape:window-y="0"
     inkscape:window-maximized="0"
     inkscape:current-layer="svg4" /><defs
     id="defs3"><filter
       id="filter1057"
       x="-0.026999999"
       y="-0.026999999"
       width="1.054"
       height="1.054"
       color-interpolation-filters="sRGB"><feGaussianBlur
         stdDeviation="0.61875"
         id="feGaussianBlur1" /></filter><linearGradient
       id="linearGradient980-7"
       x1="-17.007"
       x2="-2.4549999"
       y1="15.742"
       y2="1.1906"
       gradientTransform="matrix(3.7796,0,0,3.7796,152.84,5.6602)"
       gradientUnits="userSpaceOnUse"><stop
         stop-color="#ff8228"
         offset="0"
         id="stop1" /><stop
         stop-color="#ff7346"
         offset=".49173"
         id="stop2" /><stop
         stop-color="#ff8c55"
         offset="1"
         id="stop3" /></linearGradient></defs><rect
     x="88.561996"
     y="10.16"
     width="55"
     height="55"
     ry="15"
     fill="#141414"
     filter="url(#filter1057)"
     opacity="0.3"
     stroke-linecap="round"
     stroke-width="2.7444"
     id="rect3"
     rx="15"
     transform="translate(-84.062,-5.6602)" /><rect
     x="88.561996"
     y="10.16"
     width="55"
     height="55"
     ry="14.895"
     fill="url(#linearGradient980-7)"
     id="rect4"
     style="fill:url(#linearGradient980-7)"
     rx="14.895"
     transform="translate(-84.062,-5.6602)" /><path
     d="m 128.56,15.902 a 12.5,12.5 0 0 1 0.0102,0.49996 12.5,12.5 0 0 1 -12.5,12.5 12.5,12.5 0 0 1 -12.5,-12.5 12.5,12.5 0 0 1 0.01,-0.50068"
     fill="none"
     stroke="#ffffff"
     stroke-dashoffset="0.42096"
     stroke-width="2"
     id="path4"
     transform="translate(-84.062,-5.6602)" /><path
     id="形状结合"
     fill="#ffffff"
     d="m 126.63779,35.6602 c 0.12399,0 0.22736,0.106308 0.22736,0.23714 v 14.207881 c 0,0.128657 -0.10334,0.235491 -0.22736,0.235491 h -2.92723 c -0.12555,0 -0.22772,-0.106842 -0.22772,-0.235491 V 35.89734 c 0,-0.130751 0.10204,-0.23714 0.22772,-0.23714 z m -12.70315,0 c 2.20819,0 4.51705,0.107657 5.65582,1.31954 1.11958,1.192606 1.24085,3.567163 1.2455,5.873075 v 7.252332 c 0,0.128657 -0.10204,0.23549 -0.22707,0.23549 h -2.92681 c -0.12542,0 -0.22779,-0.106842 -0.22779,-0.23549 v -7.377091 c -0.003,-1.287882 -0.0728,-2.611472 -0.69724,-3.277806 -0.53754,-0.573234 -1.54057,-0.704521 -2.58362,-0.731754 h -5.30549 c -0.12438,0 -0.2263,0.106462 -0.2263,0.235266 v 11.151459 c 0,0.128657 -0.10321,0.235491 -0.22835,0.235491 h -2.92863 c -0.12503,0 -0.22581,-0.106842 -0.22581,-0.235491 V 35.89734 c 0,-0.130751 0.10047,-0.23714 0.22581,-0.23714 z m 0.65514,5.658592 c 0.1245,0 0.2258,0.105998 0.2258,0.235788 v 8.550641 c 0,0.128657 -0.10126,0.235491 -0.2258,0.235491 h -3.07453 c -0.12646,0 -0.22772,-0.106842 -0.22772,-0.235491 V 41.55458 c 0,-0.129782 0.10139,-0.235788 0.22772,-0.235788 z"
     style="display:inline;stroke-width:0.0727472"
     transform="translate(-84.062,-5.6602)" /></svg>
