<?xml version="1.0" encoding="UTF-8" standalone="no"?>
<svg
   width="64"
   height="64"
   version="1.1"
   viewBox="0 0 64 64"
   id="svg4"
   xml:space="preserve"
   sodipodi:docname="discover.svg"
   inkscape:version="1.3.2 (091e20ef0f, 2023-11-25, custom)"
   xmlns:inkscape="http://www.inkscape.org/namespaces/inkscape"
   xmlns:sodipodi="http://sodipodi.sourceforge.net/DTD/sodipodi-0.dtd"
   xmlns="http://www.w3.org/2000/svg"
   xmlns:svg="http://www.w3.org/2000/svg"><sodipodi:namedview
     id="namedview1"
     pagecolor="#505050"
     bordercolor="#ffffff"
     borderopacity="1"
     inkscape:showpageshadow="0"
     inkscape:pageopacity="0"
     inkscape:pagecheckerboard="1"
     inkscape:deskcolor="#505050"
     inkscape:zoom="1.3632813"
     inkscape:cx="-122.49857"
     inkscape:cy="19.438395"
     inkscape:window-width="1361"
     inkscape:window-height="939"
     inkscape:window-x="0"
     inkscape:window-y="0"
     inkscape:window-maximized="0"
     inkscape:current-layer="svg4" /><defs
     id="defs3"><filter
       id="filter1057"
       x="-0.026999999"
       y="-0.026999999"
       width="1.054"
       height="1.054"
       color-interpolation-filters="sRGB"><feGaussianBlur
         stdDeviation="0.61875"
         id="feGaussianBlur1" /></filter><linearGradient
       id="linearGradient980-7"
       x1="-2.4547582"
       x2="-17.006563"
       y1="15.742353"
       y2="1.1905493"
       gradientTransform="matrix(3.7796,0,0,3.7796,152.84,5.6602)"
       gradientUnits="userSpaceOnUse"><stop
         stop-color="#ff8228"
         offset="0"
         id="stop1"
         style="stop-color:#ff521f;stop-opacity:1;" /><stop
         stop-color="#ff7346"
         offset="0.49173"
         id="stop2"
         style="stop-color:#ff7825;stop-opacity:1;" /><stop
         stop-color="#ff8c55"
         offset="1"
         id="stop3"
         style="stop-color:#ff9e29;stop-opacity:1;" /></linearGradient></defs><rect
     x="88.561996"
     y="10.16"
     width="55"
     height="55"
     ry="15"
     fill="#141414"
     filter="url(#filter1057)"
     opacity="0.3"
     stroke-linecap="round"
     stroke-width="2.7444"
     id="rect3"
     rx="15"
     transform="translate(-84.062,-5.6602)" /><rect
     x="88.561996"
     y="10.16"
     width="55"
     height="55"
     ry="14.895"
     fill="url(#linearGradient980-7)"
     id="rect4"
     style="fill:url(#linearGradient980-7)"
     rx="14.895"
     transform="translate(-84.062,-5.6602)" /><path
     d="m 128.56,15.902 a 12.5,12.5 0 0 1 0.0102,0.49996 12.5,12.5 0 0 1 -12.5,12.5 12.5,12.5 0 0 1 -12.5,-12.5 12.5,12.5 0 0 1 0.01,-0.50068"
     fill="none"
     stroke="#ffffff"
     stroke-dashoffset="0.42096"
     stroke-width="2"
     id="path4"
     transform="translate(-84.062,-5.6602)" /><path
     id="形状结合"
     fill="#ffffff"
     d="m 40.645931,31.994988 c 0.101364,0 0.185872,0.08108 0.185872,0.180858 v 10.835813 c 0,0.09812 -0.08448,0.1796 -0.185872,0.1796 h -2.393072 c -0.10264,0 -0.186166,-0.08148 -0.186166,-0.1796 V 32.175846 c 0,-0.09972 0.08342,-0.180858 0.186166,-0.180858 z m -10.385093,0 c 1.805242,0 3.692783,0.08211 4.623753,1.006363 0.91528,0.909555 1.01442,2.72054 1.018222,4.479171 v 5.531081 c 0,0.09812 -0.08342,0.179599 -0.185634,0.179599 h -2.39273 c -0.102533,0 -0.186222,-0.08148 -0.186222,-0.179599 v -5.626229 c -0.0025,-0.982219 -0.05952,-1.99167 -0.570009,-2.499859 -0.43945,-0.437184 -1.259448,-0.537312 -2.112164,-0.558081 h -4.33735 c -0.101683,0 -0.185005,0.08119 -0.185005,0.179428 v 8.504796 c 0,0.09812 -0.08438,0.1796 -0.186681,0.1796 h -2.394217 c -0.102214,0 -0.184604,-0.08148 -0.184604,-0.1796 V 32.175846 c -1e-6,-0.09972 0.08214,-0.180858 0.184603,-0.180858 z m 0.53559,4.315593 c 0.101782,0 0.184597,0.08084 0.184597,0.179828 v 6.52125 c 0,0.09812 -0.08278,0.1796 -0.184597,0.1796 h -2.513493 c -0.103384,0 -0.186166,-0.08148 -0.186166,-0.1796 v -6.52125 c 0,-0.09898 0.08289,-0.179828 0.186166,-0.179828 z"
     style="display:inline;stroke-width:0.0574423" /></svg>
