<?xml version="1.0" encoding="UTF-8" standalone="no"?>
<svg
   width="64"
   height="64"
   version="1.1"
   viewBox="0 0 16.933 16.933"
   id="svg62"
   xml:space="preserve"
   sodipodi:docname="github.svg"
   inkscape:version="1.3.2 (091e20ef0f, 2023-11-25, custom)"
   xmlns:inkscape="http://www.inkscape.org/namespaces/inkscape"
   xmlns:sodipodi="http://sodipodi.sourceforge.net/DTD/sodipodi-0.dtd"
   xmlns="http://www.w3.org/2000/svg"
   xmlns:svg="http://www.w3.org/2000/svg"
   xmlns:rdf="http://www.w3.org/1999/02/22-rdf-syntax-ns#"
   xmlns:cc="http://creativecommons.org/ns#"
   xmlns:dc="http://purl.org/dc/elements/1.1/"><sodipodi:namedview
     id="namedview1"
     pagecolor="#505050"
     bordercolor="#ffffff"
     borderopacity="1"
     inkscape:showpageshadow="0"
     inkscape:pageopacity="0"
     inkscape:pagecheckerboard="1"
     inkscape:deskcolor="#505050"
     inkscape:zoom="13.21875"
     inkscape:cx="31.962175"
     inkscape:cy="32"
     inkscape:window-width="1920"
     inkscape:window-height="1080"
     inkscape:window-x="0"
     inkscape:window-y="0"
     inkscape:window-maximized="1"
     inkscape:current-layer="svg62" /><defs
     id="defs15"><style
       type="text/css"
       id="style841" /><filter
       id="filter1057"
       x="-0.026999999"
       y="-0.026999999"
       width="1.054"
       height="1.054"
       color-interpolation-filters="sRGB"><feGaussianBlur
         stdDeviation="0.61875"
         id="feGaussianBlur843" /></filter><linearGradient
       id="linearGradient1053"
       x1="-99.5"
       x2="-99.5"
       y1="5.0100002"
       y2="60.009998"
       gradientTransform="matrix(0.26457812,0,0,0.26457812,34.792022,-0.1349349)"
       gradientUnits="userSpaceOnUse"><stop
         stop-color="#32d7ff"
         offset="0"
         id="stop846"
         style="stop-color:#1b1f22;stop-opacity:1;" /><stop
         stop-color="#329bff"
         offset="1"
         id="stop848"
         style="stop-color:#050505;stop-opacity:1;" /></linearGradient><style
       type="text/css"
       id="style851" /><style
       type="text/css"
       id="style853" /><style
       type="text/css"
       id="style855" /><style
       type="text/css"
       id="style857" /><style
       type="text/css"
       id="style859" /><style
       type="text/css"
       id="style861" /><style
       type="text/css"
       id="style863" /><style
       id="style1">.cls-1{fill:none;}.cls-2{fill:#4e4e4e;}.cls-3{clip-path:url(#clip-path);}.cls-4{fill:url(#未命名的渐变_3);}.cls-5{clip-path:url(#clip-path-2);}.cls-6{fill:url(#未命名的渐变_30);}.cls-7{fill:#227b3d;}.cls-8{fill:#8c8c8c;}</style></defs><metadata
     id="metadata17"><rdf:RDF><cc:Work
         rdf:about=""><dc:format>image/svg+xml</dc:format><dc:type
           rdf:resource="http://purl.org/dc/dcmitype/StillImage" /><dc:title /></cc:Work></rdf:RDF></metadata><rect
     x="4.5"
     y="4.5"
     width="55"
     height="55"
     ry="15"
     fill="#141414"
     filter="url(#filter1057)"
     opacity="0.3"
     stroke-linecap="round"
     stroke-width="2.7444"
     id="rect879"
     transform="scale(0.26457812)"
     rx="15" /><rect
     x="1.1906016"
     y="1.1906016"
     width="14.551797"
     height="14.551797"
     ry="3.9686718"
     fill="url(#linearGradient1053)"
     stroke-linecap="round"
     stroke-width="0.726108"
     id="rect881"
     style="display:inline;fill:url(#linearGradient1053)"
     rx="3.9686718" /><path
     d="m 8.4665367,3.0426478 c -2.9237256,0 -5.291598,2.4277138 -5.291598,5.4253225 0,2.4008227 1.5147629,4.4284777 3.6180869,5.1469797 0.2644005,0.04765 0.3636006,-0.115117 0.3636006,-0.257585 0,-0.128797 -0.00645,-0.555742 -0.00645,-1.010525 -1.3293224,0.25098 -1.6730431,-0.332124 -1.7788833,-0.636885 -0.06,-0.156156 -0.3176006,-0.63783 -0.542961,-0.766623 -0.1848003,-0.101903 -0.4495609,-0.352882 -0.00645,-0.359486 0.4168808,-0.0066 0.7146013,0.393456 0.8140016,0.556214 0.4762407,0.820875 1.2368423,0.589709 1.5410028,0.447234 0.046,-0.352409 0.1848004,-0.589706 0.3372006,-0.725578 -1.1774798,-0.135397 -2.4074421,-0.603389 -2.4074421,-2.6786935 0,-0.5897088 0.2048004,-1.0779878 0.542041,-1.4577604 -0.0528,-0.135869 -0.2380005,-0.6920824 0.0528,-1.437946 0,0 0.4431208,-0.1424736 1.4554027,0.5562134 C 7.5802094,5.7213414 8.0297703,5.660484 8.479771,5.660484 c 0.4495609,0 0.8995618,0.06133 1.3228826,0.1830455 1.0123224,-0.7052918 1.4549624,-0.5562134 1.4549624,-0.5562134 0.291201,0.7458636 0.106,1.302077 0.0528,1.437946 0.337201,0.3797726 0.542481,0.860975 0.542481,1.4577604 0,2.0819085 -1.236841,2.5428255 -2.414324,2.6786935 0.1920004,0.169837 0.3572006,0.495356 0.3572006,1.003922 0,0.725578 -0.00648,1.308681 -0.00648,1.491727 0,0.142474 0.0992,0.312311 0.3636014,0.258057 2.090883,-0.718974 3.605166,-2.753706 3.605166,-5.1474515 0,-2.9976089 -2.367884,-5.4253224 -5.2915937,-5.4253224 z"
     id="path1-3"
     style="fill:#fcfcfc;fill-opacity:1;stroke-width:0.465917" /></svg>
