<?xml version="1.0" encoding="UTF-8" standalone="no"?>
<svg
   width="64"
   height="64"
   version="1.1"
   viewBox="0 0 16.933 16.933"
   id="svg62"
   xml:space="preserve"
   sodipodi:docname="google-chrome-beta.svg"
   inkscape:version="1.3.2 (091e20ef0f, 2023-11-25, custom)"
   xmlns:inkscape="http://www.inkscape.org/namespaces/inkscape"
   xmlns:sodipodi="http://sodipodi.sourceforge.net/DTD/sodipodi-0.dtd"
   xmlns="http://www.w3.org/2000/svg"
   xmlns:svg="http://www.w3.org/2000/svg"
   xmlns:rdf="http://www.w3.org/1999/02/22-rdf-syntax-ns#"
   xmlns:cc="http://creativecommons.org/ns#"
   xmlns:dc="http://purl.org/dc/elements/1.1/"><sodipodi:namedview
     id="namedview1"
     pagecolor="#505050"
     bordercolor="#ffffff"
     borderopacity="1"
     inkscape:showpageshadow="0"
     inkscape:pageopacity="0"
     inkscape:pagecheckerboard="1"
     inkscape:deskcolor="#505050"
     inkscape:zoom="16.000001"
     inkscape:cx="38.499998"
     inkscape:cy="32.937499"
     inkscape:window-width="1920"
     inkscape:window-height="1080"
     inkscape:window-x="0"
     inkscape:window-y="0"
     inkscape:window-maximized="1"
     inkscape:current-layer="svg62" /><defs
     id="defs15"><style
       type="text/css"
       id="style841" /><filter
       id="filter1057"
       x="-0.026999999"
       y="-0.026999999"
       width="1.054"
       height="1.054"
       color-interpolation-filters="sRGB"><feGaussianBlur
         stdDeviation="0.61875"
         id="feGaussianBlur843" /></filter><linearGradient
       id="linearGradient1053"
       x1="-127"
       x2="-72"
       y1="60"
       y2="5"
       gradientTransform="matrix(0.26457812,0,0,0.26457812,34.792022,-0.1349349)"
       gradientUnits="userSpaceOnUse"><stop
         stop-color="#32d7ff"
         offset="0"
         id="stop846"
         style="stop-color:#ffffff;stop-opacity:1;" /><stop
         stop-color="#329bff"
         offset="1"
         id="stop848"
         style="stop-color:#ffffff;stop-opacity:1;" /></linearGradient><style
       type="text/css"
       id="style851" /><style
       type="text/css"
       id="style853" /><style
       type="text/css"
       id="style855" /><style
       type="text/css"
       id="style857" /><style
       type="text/css"
       id="style859" /><style
       type="text/css"
       id="style861" /><style
       type="text/css"
       id="style863" /><linearGradient
       id="a"
       x1="3.2172999"
       y1="15"
       x2="44.7812"
       y2="15"
       gradientUnits="userSpaceOnUse"><stop
         offset="0"
         stop-color="#d93025"
         id="stop1" /><stop
         offset="1"
         stop-color="#ea4335"
         id="stop2" /></linearGradient><linearGradient
       id="b"
       x1="20.721901"
       y1="47.6791"
       x2="41.503899"
       y2="11.6837"
       gradientUnits="userSpaceOnUse"><stop
         offset="0"
         stop-color="#fcc934"
         id="stop3" /><stop
         offset="1"
         stop-color="#fbbc04"
         id="stop4" /></linearGradient><linearGradient
       id="c"
       x1="26.598101"
       y1="46.501499"
       x2="5.8161001"
       y2="10.506"
       gradientUnits="userSpaceOnUse"><stop
         offset="0"
         stop-color="#1e8e3e"
         id="stop5-3" /><stop
         offset="1"
         stop-color="#34a853"
         id="stop6" /></linearGradient><clipPath
       clipPathUnits="userSpaceOnUse"
       id="clipPath5"><g
         inkscape:label="Clip"
         id="use5"><path
           d="M 8.4665,3.770755 A 4.6957912,4.6957912 0 0 0 3.770755,8.4665 4.6957912,4.6957912 0 0 0 8.4665,13.162245 4.6957912,4.6957912 0 0 0 13.162245,8.4665 4.6957912,4.6957912 0 0 0 8.4665,3.770755 Z"
           style="opacity:0.7;fill:#ffffff;stroke:#000000;stroke-width:0"
           id="path5" /></g></clipPath></defs><metadata
     id="metadata17"><rdf:RDF><cc:Work
         rdf:about=""><dc:format>image/svg+xml</dc:format><dc:type
           rdf:resource="http://purl.org/dc/dcmitype/StillImage" /><dc:title /></cc:Work></rdf:RDF></metadata><rect
     x="4.5"
     y="4.5"
     width="55"
     height="55"
     ry="15"
     fill="#141414"
     filter="url(#filter1057)"
     opacity="0.3"
     stroke-linecap="round"
     stroke-width="2.7444"
     id="rect879"
     transform="scale(0.26457812)"
     rx="15" /><rect
     x="1.1906016"
     y="1.1906016"
     width="14.551797"
     height="14.551797"
     ry="3.9686718"
     fill="url(#linearGradient1053)"
     stroke-linecap="round"
     stroke-width="0.726108"
     id="rect881"
     style="fill:url(#linearGradient1053)"
     rx="3.9686718" /><g
     id="g1"
     transform="matrix(0.23152364,0,0,0.23150563,2.9103567,2.9103697)"
     style="display:inline"><path
       d="M 24,12 H 44.7812 A 23.9939,23.9939 0 0 0 3.2173,12.0029 L 13.6079,30 13.6172,29.9976 A 11.9852,11.9852 0 0 1 24,12 Z"
       style="display:inline;fill:url(#a)"
       id="path7" /><circle
       cx="24"
       cy="24"
       r="9.5"
       style="display:inline;fill:#1a73e8"
       id="circle7" /><path
       d="M 34.3913,30.0029 24.0007,48 A 23.994,23.994 0 0 0 44.78,12.0031 H 23.9989 l -0.0025,0.0093 a 11.985,11.985 0 0 1 10.3949,17.9905 z"
       style="display:inline;fill:url(#b)"
       id="path8" /><path
       d="M 13.6086,30.0031 3.218,12.006 A 23.994,23.994 0 0 0 24.0025,48 L 34.3931,30.0029 34.3864,29.9961 a 11.9852,11.9852 0 0 1 -20.7778,0.007 z"
       style="display:inline;fill:url(#c)"
       id="path9"
       sodipodi:insensitive="true" /></g><path
     id="path6"
     style="opacity:1;fill:#353535;stroke:#000000;stroke-width:0"
     d="M 13.787587,10.063991 A 5.5556736,5.5561399 0 0 1 8.4667385,14.02264 5.5556736,5.5561399 0 0 1 3.1455507,10.064447" /><path
     d="m 6.8639294,11.47175 c 0.1407558,-0.05433 0.2395318,-0.185205 0.2395318,-0.387696 0,-0.340777 -0.2296542,-0.521043 -0.6247582,-0.521043 H 5.6662704 v 1.926132 h 0.8667594 c 0.4222674,0 0.6642686,-0.20743 0.6642686,-0.550676 0,-0.256818 -0.1382864,-0.395104 -0.333369,-0.4519 z M 6.429315,10.93589 c 0.1555722,0 0.2494094,0.0568 0.2494094,0.182736 0,0.133348 -0.096307,0.202491 -0.2518788,0.202491 H 6.0786602 V 10.93589 Z m -0.3506548,1.177904 v -0.419798 h 0.407451 c 0.1654498,0 0.2889198,0.06914 0.2889198,0.20496 0,0.145695 -0.12347,0.214838 -0.2889198,0.214838 z M 8.745613,11.654486 c 0,-0.402512 -0.2642258,-0.65933 -0.6568604,-0.65933 -0.4173286,0 -0.6939014,0.301267 -0.6939014,0.777861 0,0.461778 0.2864504,0.750698 0.7136566,0.750698 0.3111444,0 0.4988188,-0.158042 0.5827784,-0.3309 L 8.3900194,11.990324 c -0.066674,0.128409 -0.1580416,0.192613 -0.2765728,0.192613 -0.1802662,0 -0.2765728,-0.106184 -0.3037362,-0.283981 h 0.9038004 c 0.019755,-0.07408 0.032102,-0.155572 0.032102,-0.24447 z m -0.926025,-0.06914 c 0.034572,-0.16545 0.12347,-0.261757 0.2691646,-0.261757 0.160511,0 0.2494094,0.103715 0.2494094,0.261757 z M 9.8741269,11.029728 H 9.4963088 v -0.41239 H 9.096266 v 0.41239 H 8.8715506 v 0.377818 H 9.096266 v 0.622289 c 0,0.321022 0.1703886,0.498818 0.4815329,0.498818 0.096307,0 0.1753274,-0.01235 0.2666952,-0.03951 v -0.377818 c -0.061735,0.01975 -0.1185312,0.02716 -0.1703886,0.02716 -0.1135924,0 -0.1777967,-0.06174 -0.1777967,-0.167919 v -0.563023 h 0.3778181 z m 0.6025331,1.493987 c 0.170388,0 0.313614,-0.06914 0.375349,-0.202491 h 0.01482 v 0.167919 h 0.400043 v -0.938372 c 0,-0.335838 -0.251879,-0.555615 -0.612411,-0.555615 -0.251879,0 -0.444492,0.101245 -0.57784,0.298797 l 0.271634,0.187675 c 0.06667,-0.09878 0.155572,-0.150634 0.269165,-0.150634 0.153102,0 0.249409,0.08149 0.249409,0.209899 v 0.03951 H 10.68162 c -0.422267,0 -0.666738,0.219776 -0.666738,0.525982 0,0.269165 0.209899,0.417329 0.461778,0.417329 z m 0.121,-0.328431 c -0.116061,0 -0.175327,-0.04198 -0.175327,-0.116061 0,-0.111123 0.108654,-0.172858 0.343247,-0.172858 h 0.101245 v 0.08396 c 0,0.133348 -0.12347,0.20496 -0.269165,0.20496 z"
     id="text1"
     style="font-weight:600;font-size:2.4694px;font-family:MiSans;-inkscape-font-specification:'MiSans Semi-Bold';fill:#ffffff;stroke:#000000;stroke-width:0"
     aria-label="Beta" /></svg>
