<?xml version="1.0" encoding="UTF-8" standalone="no"?>
<svg
   width="64"
   height="64"
   version="1.1"
   viewBox="0 0 16.933 16.933"
   id="svg62"
   xml:space="preserve"
   xmlns:xlink="http://www.w3.org/1999/xlink"
   xmlns="http://www.w3.org/2000/svg"
   xmlns:svg="http://www.w3.org/2000/svg"
   xmlns:rdf="http://www.w3.org/1999/02/22-rdf-syntax-ns#"
   xmlns:cc="http://creativecommons.org/ns#"
   xmlns:dc="http://purl.org/dc/elements/1.1/"><defs
     id="defs15"><style
       type="text/css"
       id="style841" /><filter
       id="filter1057"
       x="-0.026999999"
       y="-0.026999999"
       width="1.054"
       height="1.054"
       color-interpolation-filters="sRGB"><feGaussianBlur
         stdDeviation="0.61875"
         id="feGaussianBlur843" /></filter><linearGradient
       id="linearGradient1053"
       x1="-127"
       x2="-72"
       y1="60"
       y2="5"
       gradientTransform="matrix(0.26457812,0,0,0.26457812,34.792022,-0.1349349)"
       gradientUnits="userSpaceOnUse"><stop
         stop-color="#32d7ff"
         offset="0"
         id="stop846"
         style="stop-color:#24161f;stop-opacity:1;" /><stop
         stop-color="#329bff"
         offset="1"
         id="stop848"
         style="stop-color:#16121a;stop-opacity:1;" /></linearGradient><style
       type="text/css"
       id="style851" /><style
       type="text/css"
       id="style853" /><style
       type="text/css"
       id="style855" /><style
       type="text/css"
       id="style857" /><style
       type="text/css"
       id="style859" /><style
       type="text/css"
       id="style861" /><style
       type="text/css"
       id="style863" /><style
       id="style1">.cls-1{fill:none;}.cls-2{fill:#4e4e4e;}.cls-3{clip-path:url(#clip-path);}.cls-4{fill:url(#未命名的渐变_3);}.cls-5{clip-path:url(#clip-path-2);}.cls-6{fill:url(#未命名的渐变_30);}.cls-7{fill:#227b3d;}.cls-8{fill:#8c8c8c;}</style><radialGradient
       xlink:href="#linearGradient1053"
       id="radialGradient1"
       cx="8.4665003"
       cy="8.4665003"
       fx="8.4665003"
       fy="8.4665003"
       r="7.2758985"
       gradientUnits="userSpaceOnUse" /></defs><metadata
     id="metadata17"><rdf:RDF><cc:Work
         rdf:about=""><dc:format>image/svg+xml</dc:format><dc:type
           rdf:resource="http://purl.org/dc/dcmitype/StillImage" /><dc:title /></cc:Work></rdf:RDF></metadata><rect
     x="4.5"
     y="4.5"
     width="55"
     height="55"
     ry="15"
     fill="#141414"
     filter="url(#filter1057)"
     opacity="0.3"
     stroke-linecap="round"
     stroke-width="2.7444"
     id="rect879"
     transform="scale(0.26457812)"
     rx="15" /><rect
     x="1.1906016"
     y="1.1906016"
     width="14.551797"
     height="14.551797"
     ry="3.9686718"
     fill="url(#linearGradient1053)"
     stroke-linecap="round"
     stroke-width="0.726108"
     id="rect881"
     style="display:inline;fill:url(#radialGradient1)"
     rx="3.9686718" /><g
     clip-rule="evenodd"
     fill-rule="evenodd"
     id="g8"
     transform="matrix(0.05820719,0,0,0.05820719,1.1906304,2.3692968)"><path
       d="m 161.167,81.186 c 10.944,7.819 24.352,12.42 38.832,12.42 V 65.755 a 39.26,39.26 0 0 1 -8.155,-0.853 v 21.923 c -14.479,0 -27.885,-4.601 -38.832,-12.42 v 56.835 c 0,28.432 -23.06,51.479 -51.505,51.479 -10.613,0 -20.478,-3.207 -28.673,-8.707 9.353,9.558 22.396,15.488 36.826,15.488 28.447,0 51.508,-23.047 51.508,-51.48 V 81.186 Z m 10.06,-28.098 c -5.593,-6.107 -9.265,-14 -10.06,-22.726 V 26.78 h -7.728 c 1.945,11.09 8.58,20.565 17.788,26.308 z m -80.402,99.107 a 23.445,23.445 0 0 1 -4.806,-14.256 c 0,-13.004 10.548,-23.547 23.561,-23.547 a 23.6,23.6 0 0 1 7.147,1.103 V 87.022 a 51.97,51.97 0 0 0 -8.152,-0.469 v 22.162 a 23.619,23.619 0 0 0 -7.15,-1.103 c -13.013,0 -23.56,10.543 -23.56,23.548 0,9.195 5.272,17.157 12.96,21.035 z"
       fill="#ee1d52"
       id="path5" /><path
       d="m 153.012,74.405 c 10.947,7.819 24.353,12.42 38.832,12.42 V 64.902 C 183.762,63.182 176.607,58.96 171.227,53.088 162.019,47.345 155.384,37.87 153.439,26.78 H 133.14 v 111.239 c -0.046,12.968 -10.576,23.468 -23.561,23.468 -7.652,0 -14.45,-3.645 -18.755,-9.292 -7.688,-3.878 -12.96,-11.84 -12.96,-21.035 0,-13.005 10.547,-23.548 23.56,-23.548 2.493,0 4.896,0.388 7.15,1.103 V 86.553 c -27.945,0.577 -50.42,23.399 -50.42,51.467 0,14.011 5.597,26.713 14.68,35.993 8.195,5.5 18.06,8.707 28.673,8.707 28.445,0 51.505,-23.048 51.505,-51.479 z"
       fill="#ffffff"
       id="path6" /><path
       d="m 191.844,64.902 v -5.928 a 38.84,38.84 0 0 1 -20.617,-5.887 38.948,38.948 0 0 0 20.617,11.815 z M 153.439,26.78 a 39.524,39.524 0 0 1 -0.427,-3.198 V 20 h -28.028 v 111.24 c -0.045,12.967 -10.574,23.467 -23.56,23.467 -3.813,0 -7.412,-0.904 -10.6,-2.512 4.305,5.647 11.103,9.292 18.755,9.292 12.984,0 23.515,-10.5 23.561,-23.468 V 26.78 Z m -44.864,59.773 v -6.311 a 51.97,51.97 0 0 0 -7.067,-0.479 C 73.06,79.763 50,102.811 50,131.24 c 0,17.824 9.063,33.532 22.835,42.772 -9.083,-9.28 -14.68,-21.982 -14.68,-35.993 0,-28.067 22.474,-50.889 50.42,-51.466 z"
       fill="#69c9d0"
       id="path7" /></g></svg>
