<?xml version="1.0" encoding="UTF-8" standalone="no"?>
<svg
   width="64"
   height="64"
   version="1.1"
   viewBox="0 0 16.933 16.933"
   id="svg62"
   xml:space="preserve"
   sodipodi:docname="obs-tray-active.svg"
   inkscape:version="1.3.2 (091e20ef0f, 2023-11-25, custom)"
   xmlns:inkscape="http://www.inkscape.org/namespaces/inkscape"
   xmlns:sodipodi="http://sodipodi.sourceforge.net/DTD/sodipodi-0.dtd"
   xmlns:xlink="http://www.w3.org/1999/xlink"
   xmlns="http://www.w3.org/2000/svg"
   xmlns:svg="http://www.w3.org/2000/svg"
   xmlns:rdf="http://www.w3.org/1999/02/22-rdf-syntax-ns#"
   xmlns:cc="http://creativecommons.org/ns#"
   xmlns:dc="http://purl.org/dc/elements/1.1/"><sodipodi:namedview
     id="namedview1"
     pagecolor="#505050"
     bordercolor="#ffffff"
     borderopacity="1"
     inkscape:showpageshadow="0"
     inkscape:pageopacity="0"
     inkscape:pagecheckerboard="1"
     inkscape:deskcolor="#505050"
     inkscape:zoom="10.90625"
     inkscape:cx="43.919771"
     inkscape:cy="37.363897"
     inkscape:window-width="1361"
     inkscape:window-height="939"
     inkscape:window-x="0"
     inkscape:window-y="0"
     inkscape:window-maximized="0"
     inkscape:current-layer="svg62" /><defs
     id="defs15"><linearGradient
       id="linearGradient22"><stop
         style="stop-color:#ffffff;stop-opacity:1;"
         offset="0"
         id="stop23" /><stop
         style="stop-color:#d1d1d1;stop-opacity:1;"
         offset="0.81818181"
         id="stop25" /><stop
         style="stop-color:#dedede;stop-opacity:1;"
         offset="1"
         id="stop24" /></linearGradient><linearGradient
       id="linearGradient21"><stop
         style="stop-color:#e64242;stop-opacity:1;"
         offset="0"
         id="stop21" /><stop
         style="stop-color:#921111;stop-opacity:0.9137255;"
         offset="0.41666669"
         id="stop2" /><stop
         style="stop-color:#000000;stop-opacity:0.82822084;"
         offset="1"
         id="stop22" /></linearGradient><style
       type="text/css"
       id="style841" /><filter
       id="filter1057"
       x="-0.026999999"
       y="-0.026999999"
       width="1.054"
       height="1.054"
       color-interpolation-filters="sRGB"><feGaussianBlur
         stdDeviation="0.61875"
         id="feGaussianBlur843" /></filter><style
       type="text/css"
       id="style851" /><style
       type="text/css"
       id="style853" /><style
       type="text/css"
       id="style855" /><style
       type="text/css"
       id="style857" /><style
       type="text/css"
       id="style859" /><style
       type="text/css"
       id="style861" /><style
       type="text/css"
       id="style863" /><style
       id="style1">.cls-1{fill:none;}.cls-2{fill:#4e4e4e;}.cls-3{clip-path:url(#clip-path);}.cls-4{fill:url(#未命名的渐变_3);}.cls-5{clip-path:url(#clip-path-2);}.cls-6{fill:url(#未命名的渐变_30);}.cls-7{fill:#227b3d;}.cls-8{fill:#8c8c8c;}</style><style
       id="style1-0">.cls-1{fill:url(#radial-gradient);}.cls-2{fill:none;}.cls-3{fill:url(#radial-gradient-2);}.cls-4{fill:url(#radial-gradient-3);}.cls-5{clip-path:url(#clip-path);}.cls-6{fill:url(#radial-gradient-5);}.cls-7{clip-path:url(#clip-path-2);}.cls-8{fill:url(#radial-gradient-6);}.cls-9{fill:url(#radial-gradient-7);}</style><style
       id="style1-3">.cls-1{fill:url(#radial-gradient);}.cls-2{fill:none;}.cls-3{fill:url(#radial-gradient-2);}.cls-4{fill:url(#radial-gradient-3);}.cls-5{clip-path:url(#clip-path);}.cls-6{fill:url(#radial-gradient-5);}.cls-7{clip-path:url(#clip-path-2);}.cls-8{fill:url(#radial-gradient-6);}.cls-9{fill:url(#radial-gradient-7);}</style><style
       id="style1-9">.cls-1{fill:url(#radial-gradient);}.cls-2{fill:none;}.cls-3{fill:url(#radial-gradient-2);}.cls-4{fill:url(#radial-gradient-3);}.cls-5{clip-path:url(#clip-path);}.cls-6{fill:url(#radial-gradient-5);}.cls-7{clip-path:url(#clip-path-2);}.cls-8{fill:url(#radial-gradient-6);}.cls-9{fill:url(#radial-gradient-7);}</style><radialGradient
       id="radial-gradient-3-2"
       cx="512.05908"
       cy="512.12122"
       r="486.27267"
       gradientUnits="userSpaceOnUse"><stop
         offset="0.99000001"
         stop-color="#fff"
         id="stop5-7"
         style="stop-color:#f2f2f2;stop-opacity:1;" /><stop
         offset="0.99505001"
         stop-color="#fdfdfd"
         id="stop6-2"
         style="stop-color:#d4d4d4;stop-opacity:0.57055217;" /><stop
         offset="0.99686998"
         stop-color="#f6f6f6"
         id="stop7-2"
         style="stop-color:#cecece;stop-opacity:1;" /><stop
         offset="0.99817002"
         stop-color="#ebebeb"
         id="stop8-61"
         style="stop-color:#c9c9c9;stop-opacity:1;" /><stop
         offset="0.99921"
         stop-color="#dadada"
         id="stop9-0"
         style="stop-color:#979797;stop-opacity:1;" /><stop
         offset="1"
         stop-color="#c7c7c7"
         id="stop10-6"
         style="stop-color:#767676;stop-opacity:1;" /></radialGradient><radialGradient
       id="radial-gradient-7-7"
       cx="578.89026"
       cy="473.31943"
       r="353.94183"
       gradientTransform="matrix(1,0,0,1.09706,0,-45.94173)"
       gradientUnits="userSpaceOnUse"><stop
         offset="0"
         stop-color="#c2c0c2"
         id="stop13-1" /><stop
         offset="0.74648315"
         stop-color="#c2c0c2"
         id="stop1"
         style="stop-color:#d6d5d6;stop-opacity:1;" /><stop
         offset="1"
         stop-color="#ebebeb"
         id="stop14-1" /></radialGradient><radialGradient
       xlink:href="#linearGradient21"
       id="radialGradient22"
       cx="512.06146"
       cy="512.12115"
       fx="512.06146"
       fy="512.12115"
       r="444.12354"
       gradientTransform="matrix(1,0,0,0.9999947,0,0.00271556)"
       gradientUnits="userSpaceOnUse" /><radialGradient
       xlink:href="#linearGradient22"
       id="radialGradient24"
       cx="8.4665003"
       cy="8.4665003"
       fx="8.4665003"
       fy="8.4665003"
       r="7.2758985"
       gradientUnits="userSpaceOnUse" /></defs><metadata
     id="metadata17"><rdf:RDF><cc:Work
         rdf:about=""><dc:format>image/svg+xml</dc:format><dc:type
           rdf:resource="http://purl.org/dc/dcmitype/StillImage" /><dc:title /></cc:Work></rdf:RDF></metadata><rect
     x="4.5"
     y="4.5"
     width="55"
     height="55"
     ry="15"
     fill="#141414"
     filter="url(#filter1057)"
     opacity="0.3"
     stroke-linecap="round"
     stroke-width="2.7444"
     id="rect879"
     transform="scale(0.26457812)"
     rx="15" /><rect
     x="1.1906016"
     y="1.1906016"
     width="14.551797"
     height="14.551797"
     ry="3.9686718"
     fill="url(#linearGradient1053)"
     stroke-linecap="round"
     stroke-width="0.726108"
     id="rect881"
     style="display:inline;fill:url(#radialGradient24);fill-opacity:1"
     rx="3.9686718" /><g
     id="g19"
     transform="matrix(0.01224212,0,0,0.01224212,2.4181691,2.4418932)"><path
       class="cls-4"
       d="m 512.05911,25.84852 c 268.56207,0 486.27268,217.71061 486.27268,486.27268 0,268.56207 -217.71061,486.27268 -486.27268,486.27268 -268.56207,0 -486.27268,-217.71054 -486.27268,-486.27268 0,-268.56214 217.71057,-486.27268 486.27268,-486.27268"
       transform="translate(-18,-20)"
       shape-rendering="geometricPrecision"
       id="path15"
       style="fill:url(#radial-gradient-3-2)" /><path
       id="SVGID-2"
       data-name="SVGID"
       class="cls-1"
       d="m 67.93793,512.1212 c 0,245.28622 198.83963,444.12116 444.12116,444.12116 245.28153,0 444.12591,-198.83494 444.12591,-444.12116 C 956.185,266.83966 757.34063,68 512.05909,68 266.77755,68 67.93793,266.83966 67.93793,512.1212"
       transform="translate(-18,-20)"
       shape-rendering="geometricPrecision"
       style="display:inline;fill:url(#radialGradient22);fill-opacity:1" /><path
       class="cls-9"
       d="M 684.907,370.50177 A 199.24212,199.24212 0 0 1 407.6664,440.95782 202.74787,202.74787 0 0 1 362.753,403.18446 198.9214,198.9214 0 0 1 312.85481,262.05133 c 0.28387,-5.78965 0.76859,-11.56257 1.52683,-17.30975 0.74726,-5.66395 1.7459,-11.30258 2.97756,-16.87354 q 1.89659,-8.57846 4.54716,-16.96232 2.572,-8.15982 5.86352,-16.07336 c 2.27456,-5.48511 4.8105,-10.85411 7.54648,-16.122 2.88124,-5.54761 6.07307,-10.94466 9.4812,-16.1843 q 4.7149,-7.24866 10.04419,-14.06235 c 3.85433,-4.95083 7.95005,-9.72719 12.27081,-14.27641 q 6.54174,-6.88764 13.66916,-13.16194 c 4.83847,-4.26274 9.91241,-8.2498 15.13962,-12.02191 q 4.04222,-2.917 8.23639,-5.61188 a 244.394,244.394 0 0 0 -109.08168,323.486 q 0.82056,1.704 1.66751,3.39519 0.38468,0.7681 0.77476,1.53348 a 4.60036,4.60036 0 0 0 0.46987,0.91713 c 0.32364,0.35883 0.40473,0.29867 0.89987,0.28969 2.578,-0.0468 5.15806,-0.0347 7.73585,0.021 q 7.14438,0.15426 14.26584,0.8147 a 199.577,199.577 0 0 1 178.16234,166.36656 201.32943,201.32943 0 0 1 0.64133,60.16627 A 198.7484,198.7484 0 0 1 453.532,762.237 202.19273,202.19273 0 0 1 403.75531,804.02111 199.86222,199.86222 0 0 1 279.6049,830.51543 203.06671,203.06671 0 0 1 256.40238,826.48549 c -4.95445,-1.16337 -9.85994,-2.531 -14.71085,-4.07118 a 242.60378,242.60378 0 0 0 68.54706,18.97282 247.03638,247.03638 0 0 0 66.4102,-0.79809 243.52975,243.52975 0 0 0 108.66832,-44.88732 246.04226,246.04226 0 0 0 59.73343,-63.07421 q 1.04115,-1.58711 2.05761,-3.19021 c 0.263,-0.41478 0.85074,-1.06891 0.77441,-1.50894 a 8.49447,8.49447 0 0 0 -1.05057,-1.9447 q -2.00279,-3.75737 -3.8436,-7.59815 -3.698,-7.71623 -6.7219,-15.73206 a 198.01918,198.01918 0 0 1 -9.34078,-33.367 200.87418,200.87418 0 0 1 0.041,-73.98045 A 197.88137,197.88137 0 0 1 548.324,536.05063 199.08091,199.08091 0 0 1 721.41371,432.9917 q 7.33682,-0.0509 14.66347,0.42449 7.066,0.47 14.088,1.41786 6.952,0.95079 13.82736,2.39389 6.73038,1.4208 13.355,3.29017 6.48924,1.84088 12.8432,4.11821 6.44067,2.31259 12.7085,5.06391 6.3891,2.79015 12.56139,6.04592 6.16559,3.24277 12.09984,6.9069 c 3.71356,2.2975 7.36439,4.705 10.91293,7.25121 q 5.48994,3.93921 10.72616,8.20808 c 3.603,2.93077 7.0801,6.01877 10.46193,9.202 q 5.40071,5.08362 10.4077,10.563 4.9978,5.44733 9.57009,11.27034 c 3.4,4.31833 6.6383,8.77214 9.66035,13.36317 3.10448,4.71627 6.03931,9.55546 8.74828,14.51488 a 200.21456,200.21456 0 0 1 10.06824,21.36634 206.9737,206.9737 0 0 1 7.97272,24.37127 243.74067,243.74067 0 0 0 -51.67776,-120.94126 245.663,245.663 0 0 0 -75.01182,-62.48165 242.85789,242.85789 0 0 0 -95.94806,-28.3044 q -4.267,-0.3414 -8.54423,-0.53426 z"
       transform="translate(-18,-20)"
       shape-rendering="geometricPrecision"
       id="path16"
       style="fill:url(#radial-gradient-7-7)" /></g></svg>
