<?xml version="1.0" encoding="UTF-8" standalone="no"?>
<svg
   width="64"
   height="64"
   version="1.1"
   viewBox="0 0 16.933 16.933"
   id="svg35"
   sodipodi:docname="photos.svg"
   inkscape:version="1.3.2 (091e20ef0f, 2023-11-25, custom)"
   xmlns:inkscape="http://www.inkscape.org/namespaces/inkscape"
   xmlns:sodipodi="http://sodipodi.sourceforge.net/DTD/sodipodi-0.dtd"
   xmlns="http://www.w3.org/2000/svg"
   xmlns:svg="http://www.w3.org/2000/svg"
   xmlns:rdf="http://www.w3.org/1999/02/22-rdf-syntax-ns#"
   xmlns:cc="http://creativecommons.org/ns#"
   xmlns:dc="http://purl.org/dc/elements/1.1/">
  <sodipodi:namedview
     id="namedview1"
     pagecolor="#505050"
     bordercolor="#ffffff"
     borderopacity="1"
     inkscape:showpageshadow="0"
     inkscape:pageopacity="0"
     inkscape:pagecheckerboard="1"
     inkscape:deskcolor="#505050"
     inkscape:zoom="13.21875"
     inkscape:cx="31.962175"
     inkscape:cy="32"
     inkscape:window-width="1920"
     inkscape:window-height="1080"
     inkscape:window-x="0"
     inkscape:window-y="0"
     inkscape:window-maximized="1"
     inkscape:current-layer="svg35" />
  <defs
     id="defs23">
    <filter
       id="filter1057-9"
       x="-0.026999999"
       y="-0.026999999"
       width="1.054"
       height="1.054"
       color-interpolation-filters="sRGB">
      <feGaussianBlur
         stdDeviation="0.61875"
         id="feGaussianBlur1" />
    </filter>
    <linearGradient
       id="linearGradient1068"
       x1="1.3315001"
       x2="13.449"
       y1="15.576"
       y2="3.4588001"
       gradientTransform="translate(-0.18,0.024395)"
       gradientUnits="userSpaceOnUse">
      <stop
         stop-color="#3caaff"
         offset="0"
         id="stop1" />
      <stop
         stop-color="#b496ff"
         offset="1"
         id="stop2" />
    </linearGradient>
    <linearGradient
       id="linearGradient1070"
       x1="5.7214999"
       x2="2.8441999"
       y1="8.4996004"
       y2="14.519"
       gradientTransform="translate(-0.17939,0.024395)"
       gradientUnits="userSpaceOnUse">
      <stop
         stop-color="#c3d2ff"
         offset="0"
         id="stop3" />
      <stop
         stop-color="#82c8ff"
         offset="1"
         id="stop4" />
    </linearGradient>
    <linearGradient
       id="linearGradient1072"
       x1="6.5813999"
       x2="13.959"
       y1="6.7136998"
       y2="13.123"
       gradientTransform="translate(-0.17939,0.024395)"
       gradientUnits="userSpaceOnUse">
      <stop
         stop-color="#fff"
         offset="0"
         id="stop5" />
      <stop
         stop-color="#e6e6ff"
         offset="1"
         id="stop6" />
    </linearGradient>
  </defs>
  <metadata
     id="metadata23">
    <rdf:RDF>
      <cc:Work
         rdf:about="">
        <dc:format>image/svg+xml</dc:format>
        <dc:type
           rdf:resource="http://purl.org/dc/dcmitype/StillImage" />
        <dc:title />
      </cc:Work>
    </rdf:RDF>
  </metadata>
  <rect
     transform="matrix(0.26458,0,0,0.26458,0.79772001,0.79772001)"
     x="1.485"
     y="1.485"
     width="55"
     height="55"
     ry="15"
     fill="#141414"
     filter="url(#filter1057-9)"
     opacity="0.3"
     stroke-linecap="round"
     stroke-width="2.7444"
     id="rect23"
     rx="15" />
  <g
     id="g25"
     transform="translate(0.17915,0.11606)">
    <path
       d="m 6.0458,1.0746 c -0.66533,0 -1.235,0.018672 -1.7389,0.060978 -1.6041,0.27254 -2.8749,1.497 -3.2086,3.0789 -3.36e-5,3.213e-4 3.36e-5,7.121e-4 0,0.00103 -0.064925,0.6219 -0.086817,1.3632 -0.086817,2.2469 v 3.7765 c 0,0.88366 0.021887,1.625 0.086817,2.2469 3.36e-5,3.22e-4 -3.36e-5,7.14e-4 0,10e-4 0.33367,1.5819 1.6045,2.8063 3.2086,3.0789 0.50391,0.0423 1.0736,0.06098 1.7389,0.06098 h 4.4834 c 0.66532,0 1.235,-0.01867 1.7389,-0.06098 1.6041,-0.27254 2.8749,-1.497 3.2086,-3.0789 6.9e-5,-3.29e-4 -7e-5,-7.06e-4 0,-10e-4 0.06492,-0.6219 0.08681,-1.3632 0.08681,-2.2469 v -3.7765 c 0,-0.88366 -0.02189,-1.625 -0.08681,-2.2469 -7e-5,-3.289e-4 6.9e-5,-7.049e-4 0,-0.00103 -0.33367,-1.5819 -1.6045,-2.8063 -3.2086,-3.0789 C 11.76419,1.093272 11.1945,1.0746 10.5292,1.0746 Z"
       fill="url(#linearGradient1068)"
       id="path23"
       style="fill:url(#linearGradient1068)" />
    <path
       d="M 7.346,6.7548 C 6.78174,6.7577739 5.8124,6.92658 5.2696,7.22247 4.93953,7.36959 4.56927,7.55712 4.1555,7.79556 3.74166,8.034 3.28449,8.32313 2.7809,8.67354 2.27735,9.02395 1.7275,9.43538 1.1283,9.91844 1.082169,9.955631 1.055839,9.991013 1.01203,10.02799 v 0.21084 c 0,0.88727 0.022844,1.6312 0.088367,2.2546 0.33645,1.5811 1.6089,2.8042 3.2143,3.0737 0.4899,0.04082 1.0438,0.0587 1.6857,0.05943 h 4.5852 c 0.62298,-8.46e-4 1.1659,-0.01635 1.6438,-0.05478 0.69826,-0.11158 1.3352,-0.40065 1.8604,-0.82476 -0.17125,-0.17558 -0.4172,-0.4148 -0.77308,-0.71985 -0.33169,-0.28431 -0.74078,-0.60858 -1.2211,-0.94103 -0.48033,-0.33245 -1.032,-0.67322 -1.6495,-0.99115 -0.61751,-0.31793 -1.2822,-0.68652 -1.8877,-1.0914 -0.30276,-0.20243 -0.59055,-0.4137 -0.85059,-0.63252 C 7.447777,10.15225 7.215517,9.92576 7.024667,9.69411 6.833827,9.46247 6.684207,9.2255 6.589037,8.98459 6.493865,8.74369 6.453547,8.49894 6.480517,8.25233 6.507488,8.00573 6.602057,7.75744 6.777657,7.50871 6.953247,7.25998 7.209857,7.01083 7.560557,6.76354 7.4989,6.75707 7.426707,6.75433 7.346097,6.75476 Z"
       fill="url(#linearGradient1070)"
       id="path24"
       style="fill:url(#linearGradient1070)" />
    <path
       d="M 7.5599,6.7631 C 7.20991,7.00989 6.95412,7.2585 6.77855,7.50672 6.7782061,7.5072227 6.77731,7.50778 6.77699,7.50828 v 5.292e-4 c -0.16904,0.23958 -0.25559,0.47859 -0.28629,0.71624 -0.0054,0.060056 -0.020386,0.14516 -0.018087,0.20877 0.00169,0.14318 0.029276,0.28561 0.072347,0.42685 0.043461,0.14032 0.11522,0.29996 0.20205,0.45372 0.053651,0.091095 0.12083,0.19144 0.1881,0.28112 0.087822,0.12272 0.20445,0.23814 0.32349,0.36845 0.1371,0.1415998 0.28662,0.2704298 0.44855,0.4066898 0.072841,0.0613 0.15666,0.1306 0.23358,0.19069 0.15298,0.11433 0.1934,0.14944 0.47181,0.34262 0.2851,0.19781 0.62068,0.42184 0.96377,0.62994 0.3491,0.2022 0.75473,0.41134 1.093,0.58549 0.64933,0.34222 1.2489,0.71547 1.7865,1.0909 0.36694,0.2572 0.7354,0.53911 1.0909,0.84336 0.2567,0.21972 0.50133,0.45533 0.73794,0.69763 0.74225,-0.59736 1.26,-1.4576 1.4216,-2.4417 0.0591,-0.68308 0.04937,-1.3555 0.05684,-1.8557 -0.64595,-0.30663 -1.3615,-0.6305998 -2.0159,-0.9994398 -0.47556,-0.26805 -1.645,-0.98678 -2.8593,-1.6154 -0.60711,-0.3143 -1.2251,-0.60644 -1.7735,-0.80822 -0.47289,-0.15102 -0.87738,-0.22526 -1.3544,-0.26768 z"
       fill="url(#linearGradient1072)"
       id="path25"
       style="fill:url(#linearGradient1072)" />
    <circle
       cx="12.313"
       cy="4.0661998"
       r="1.0816"
       fill="#ffffff"
       id="circle25" />
  </g>
</svg>
