<?xml version="1.0" encoding="UTF-8" standalone="no"?>
<svg
   width="64"
   height="64"
   version="1.1"
   viewBox="0 0 16.933 16.933"
   id="svg62"
   sodipodi:docname="qq.svg"
   inkscape:version="1.3.2 (091e20ef0f, 2023-11-25, custom)"
   xml:space="preserve"
   xmlns:inkscape="http://www.inkscape.org/namespaces/inkscape"
   xmlns:sodipodi="http://sodipodi.sourceforge.net/DTD/sodipodi-0.dtd"
   xmlns="http://www.w3.org/2000/svg"
   xmlns:svg="http://www.w3.org/2000/svg"
   xmlns:rdf="http://www.w3.org/1999/02/22-rdf-syntax-ns#"
   xmlns:cc="http://creativecommons.org/ns#"
   xmlns:dc="http://purl.org/dc/elements/1.1/"><sodipodi:namedview
     pagecolor="#ffffff"
     bordercolor="#666666"
     borderopacity="1"
     objecttolerance="10"
     gridtolerance="10"
     guidetolerance="10"
     inkscape:pageopacity="0"
     inkscape:pageshadow="2"
     inkscape:window-width="1920"
     inkscape:window-height="1080"
     id="namedview64"
     showgrid="false"
     inkscape:zoom="11.276931"
     inkscape:cx="22.834226"
     inkscape:cy="35.29329"
     inkscape:window-x="0"
     inkscape:window-y="0"
     inkscape:window-maximized="1"
     inkscape:current-layer="svg62"
     inkscape:showpageshadow="0"
     inkscape:pagecheckerboard="1"
     inkscape:deskcolor="#505050" /><defs
     id="defs15"><filter
       id="filter2761"
       x="-.024"
       y="-.024"
       width="1.048"
       height="1.048"
       color-interpolation-filters="sRGB"><feGaussianBlur
         stdDeviation="0.14552168"
         id="feGaussianBlur2" /></filter><linearGradient
       id="linearGradient1024"
       x1="1.3315"
       x2="15.65"
       y1="15.576"
       y2="1.17"
       gradientUnits="userSpaceOnUse"
       gradientTransform="translate(1.1902151,-4.762997)"><stop
         stop-color="#00c8ff"
         offset="0"
         id="stop5" /><stop
         stop-color="#14a0ff"
         offset="1"
         id="stop7" /></linearGradient><linearGradient
       id="linearGradient968"
       x1=".22195"
       x2="25.798"
       y1="31.117"
       y2="-.031267"
       gradientUnits="userSpaceOnUse"><stop
         stop-color="#fafaff"
         offset="0"
         id="stop10" /><stop
         stop-color="#7dd7ff"
         offset="1"
         id="stop12" /></linearGradient><style
       type="text/css"
       id="style841" /><filter
       id="filter1057"
       x="-0.026999999"
       y="-0.026999999"
       width="1.054"
       height="1.054"
       color-interpolation-filters="sRGB"><feGaussianBlur
         stdDeviation="0.61875"
         id="feGaussianBlur843" /></filter><linearGradient
       id="linearGradient1053"
       x1="-127"
       x2="-72"
       y1="60"
       y2="5"
       gradientTransform="matrix(0.26457812,0,0,0.26457812,34.792022,-0.1349349)"
       gradientUnits="userSpaceOnUse"><stop
         stop-color="#32d7ff"
         offset="0"
         id="stop846"
         style="stop-color:#ffffff;stop-opacity:1;" /><stop
         stop-color="#329bff"
         offset="1"
         id="stop848"
         style="stop-color:#ffffff;stop-opacity:1;" /></linearGradient><style
       type="text/css"
       id="style851" /><style
       type="text/css"
       id="style853" /><style
       type="text/css"
       id="style855" /><style
       type="text/css"
       id="style857" /><style
       type="text/css"
       id="style859" /><style
       type="text/css"
       id="style861" /><style
       type="text/css"
       id="style863" /></defs><metadata
     id="metadata17"><rdf:RDF><cc:Work
         rdf:about=""><dc:format>image/svg+xml</dc:format><dc:type
           rdf:resource="http://purl.org/dc/dcmitype/StillImage" /><dc:title /></cc:Work></rdf:RDF></metadata><rect
     x="4.5"
     y="4.5"
     width="55"
     height="55"
     ry="15"
     fill="#141414"
     filter="url(#filter1057)"
     opacity="0.3"
     stroke-linecap="round"
     stroke-width="2.7444"
     id="rect879"
     transform="scale(0.26457812)" /><rect
     x="1.1906016"
     y="1.1906016"
     width="14.551797"
     height="14.551797"
     ry="3.9686718"
     fill="url(#linearGradient1053)"
     stroke-linecap="round"
     stroke-width="0.726108"
     id="rect881"
     style="fill:url(#linearGradient1053)" /><g
     transform="matrix(0.02776984,0,0,0.02828209,0.24049848,0.05310524)"
     id="g12"><path
       d="m 296.23047,496.73437 c -35.52735,0 -68.14063,-11.89062 -89.13672,-29.65234 -10.66406,3.1875 -24.30469,8.3125 -32.91016,14.67188 -7.36718,5.4375 -6.44922,10.98046 -5.12109,13.21875 5.82812,9.83593 99.98437,6.28125 127.16797,3.21875 z m 0,0"
       fill="#faab07"
       id="path1" /><path
       d="m 296.23047,496.73437 c 35.53125,0 68.14062,-11.89062 89.14062,-29.65234 10.66016,3.1875 24.30078,8.3125 32.91016,14.67188 7.36328,5.4375 6.44531,10.98046 5.11719,13.21875 -5.82813,9.83593 -99.98438,6.28125 -127.16797,3.21875 z m 0,0"
       fill="#faab07"
       id="path2" /><path
       d="m 296.4375,283.80078 c 58.67187,-0.39844 105.69141,-11.75391 121.625,-16.10937 3.79687,-1.03907 5.82812,-2.90235 5.82812,-2.90235 0.0156,-0.53515 0.24219,-9.55078 0.24219,-14.20312 0,-78.32813 -36.97656,-157.039065 -127.91406,-157.042971 -90.93359,0.0039 -127.91016,78.714841 -127.91016,157.042971 0,4.65234 0.22657,13.66797 0.24219,14.20312 0,0 1.65234,1.74219 4.67969,2.58594 14.71094,4.09375 62.61719,16.01562 122.77344,16.42578 z m 0,0"
       id="path3" /><path
       d="m 455.87109,349.05469 c -3.63672,-11.70313 -8.60156,-25.35157 -13.6289,-38.46094 0,0 -2.89063,-0.35547 -4.35547,0.0664 -45.10938,13.10546 -99.78516,21.45703 -141.44922,20.95312 h -0.43359 c -41.4336,0.49609 -95.73829,-7.75781 -140.69532,-20.73437 -1.71875,-0.4961 -5.10937,-0.28516 -5.10937,-0.28516 -5.02735,13.10937 -9.99219,26.75781 -13.62891,38.46094 -17.34375,55.8125 -11.72265,78.91015 -7.44531,79.42968 9.17969,1.10938 35.73437,-42.01562 35.73437,-42.01562 0,43.82031 39.5625,111.10547 130.16016,111.72266 0.40234,-0.004 2,-0.004 2.40234,0 90.59766,-0.61719 130.16016,-67.90235 130.16016,-111.72266 0,0 26.55469,43.125 35.73438,42.01562 4.27734,-0.51953 9.89843,-23.61718 -7.44532,-79.42968"
       id="path4" /><path
       d="m 263.86328,209.26562 c -12.33594,0.5586 -22.875,-13.49609 -23.53906,-31.35937 -0.66797,-17.875 8.78125,-32.81641 21.11719,-33.375 12.32421,-0.55078 22.85937,13.49609 23.52734,31.36719 0.67578,17.875 -8.77734,32.8164 -21.10547,33.36718"
       fill="#ffffff"
       id="path5" /><path
       d="m 352.11328,177.90625 c -0.66016,17.86328 -11.19922,31.91797 -23.53516,31.35937 -12.32812,-0.55468 -21.78125,-15.49218 -21.10546,-33.36718 0.66796,-17.8711 11.20312,-31.91797 23.52734,-31.36719 12.33594,0.55859 21.78516,15.5 21.11328,33.375"
       fill="#ffffff"
       id="path6" /><path
       d="m 374.03906,234.49609 c -3.29687,-7.30078 -36.49609,-15.4375 -77.59765,-15.4375 H 296 c -41.10156,0 -74.30078,8.13672 -77.59766,15.4375 -0.14843,0.31641 -0.24218,0.66797 -0.24218,1.03907 0,0.52734 0.17968,1 0.45312,1.40625 C 221.39453,240.98828 258.25781,261 296,261 h 0.44141 c 37.74218,0 74.60546,-20.00781 77.38281,-24.05859 0.27734,-0.40235 0.45312,-0.88282 0.45312,-1.41016 0,-0.37109 -0.0898,-0.71875 -0.23828,-1.03516"
       fill="#faab07"
       id="path7" /><path
       d="m 279.02734,178.16797 c 0.5625,7.05859 -3.30859,13.32812 -8.63672,14.01172 -5.33593,0.6875 -10.11328,-4.47657 -10.67968,-11.53907 -0.5586,-7.0625 3.30859,-13.33203 8.625,-14.01171 5.34765,-0.69141 10.13281,4.48046 10.6914,11.53906"
       id="path8" /><path
       d="m 312.91797,180.52734 c 1.08984,-1.95312 8.51562,-12.22265 23.88672,-8.48437 4.03906,0.98437 5.90625,2.42969 6.30078,2.99609 0.58203,0.83985 0.74219,2.03516 0.15234,3.64453 -1.16797,3.19141 -3.58203,3.10547 -4.91797,2.48047 -0.86328,-0.40234 -11.57031,-7.53906 -21.43359,3.10938 -0.67969,0.73047 -1.89453,0.98047 -3.04297,0.11328 -1.15234,-0.8711 -1.625,-2.63281 -0.94531,-3.85938"
       id="path9" /><path
       d="m 296.4375,329.04297 h -0.43359 c -28.33594,0.34375 -62.69141,-3.41016 -95.96485,-9.96875 -2.84765,16.49219 -4.5664,37.22265 -3.08984,61.94531 3.73047,62.48438 40.83984,101.76172 98.11719,102.33203 h 2.32812 c 57.28125,-0.57031 94.38672,-39.84765 98.12109,-102.33203 1.47657,-24.72656 -0.24609,-45.45312 -3.09375,-61.94922 -33.27734,6.5625 -67.64062,10.31641 -95.98437,9.97266"
       fill="#ffffff"
       id="path10" /><path
       d="m 215.72266,323.81641 v 61.49218 c 0,0 28.16796,5.67969 56.39062,1.7461 v -56.71875 c -17.87891,-1.01172 -37.16016,-3.26563 -56.39062,-6.51953"
       fill="#eb1923"
       id="path11" /><path
       d="m 423.89062,264.78906 c 0,0 -54.79296,17.29688 -127.45312,17.78906 h -0.43359 C 223.46094,282.08984 168.73828,264.84766 168.55078,264.78906 l -18.35156,45.80469 c 45.90234,13.83984 102.78906,22.75781 145.80469,22.23828 h 0.43359 c 43.01562,0.51953 99.89844,-8.39844 145.80469,-22.23828 z m 0,0"
       fill="#eb1923"
       id="path12" /></g></svg>
