<?xml version="1.0" encoding="UTF-8" standalone="no"?>
<svg
   width="64"
   height="64"
   version="1.1"
   viewBox="0 0 16.933 16.933"
   id="svg62"
   xml:space="preserve"
   sodipodi:docname="steam.svg"
   inkscape:version="1.3.2 (091e20ef0f, 2023-11-25, custom)"
   xmlns:inkscape="http://www.inkscape.org/namespaces/inkscape"
   xmlns:sodipodi="http://sodipodi.sourceforge.net/DTD/sodipodi-0.dtd"
   xmlns:xlink="http://www.w3.org/1999/xlink"
   xmlns="http://www.w3.org/2000/svg"
   xmlns:svg="http://www.w3.org/2000/svg"
   xmlns:rdf="http://www.w3.org/1999/02/22-rdf-syntax-ns#"
   xmlns:cc="http://creativecommons.org/ns#"
   xmlns:dc="http://purl.org/dc/elements/1.1/"><sodipodi:namedview
     id="namedview1"
     pagecolor="#505050"
     bordercolor="#ffffff"
     borderopacity="1"
     inkscape:showpageshadow="0"
     inkscape:pageopacity="0"
     inkscape:pagecheckerboard="1"
     inkscape:deskcolor="#505050"
     inkscape:zoom="13.21875"
     inkscape:cx="31.962175"
     inkscape:cy="32"
     inkscape:window-width="1920"
     inkscape:window-height="1080"
     inkscape:window-x="0"
     inkscape:window-y="0"
     inkscape:window-maximized="1"
     inkscape:current-layer="svg62" /><defs
     id="defs15"><style
       type="text/css"
       id="style841" /><filter
       id="filter1057"
       x="-0.026999999"
       y="-0.026999999"
       width="1.054"
       height="1.054"
       color-interpolation-filters="sRGB"><feGaussianBlur
         stdDeviation="0.61875"
         id="feGaussianBlur843" /></filter><style
       type="text/css"
       id="style851" /><style
       type="text/css"
       id="style853" /><style
       type="text/css"
       id="style855" /><style
       type="text/css"
       id="style857" /><style
       type="text/css"
       id="style859" /><style
       type="text/css"
       id="style861" /><style
       type="text/css"
       id="style863" /><style
       id="style1">.cls-1{fill:none;}.cls-2{fill:#4e4e4e;}.cls-3{clip-path:url(#clip-path);}.cls-4{fill:url(#未命名的渐变_3);}.cls-5{clip-path:url(#clip-path-2);}.cls-6{fill:url(#未命名的渐变_30);}.cls-7{fill:#227b3d;}.cls-8{fill:#8c8c8c;}</style><linearGradient
       id="A-9"
       x2="32.010761"
       x1="32.010761"
       y2="63.965492"
       y1="0"
       gradientTransform="scale(0.99946079,1.0005395)"
       gradientUnits="userSpaceOnUse"><stop
         stop-color="#111d2e"
         offset="0%"
         id="stop1-1" /><stop
         stop-color="#051839"
         offset="21.2%"
         id="stop2-2" /><stop
         stop-color="#0a1b48"
         offset="0.41672814"
         id="stop3-70" /><stop
         stop-color="#132e62"
         offset="58.1%"
         id="stop4-9" /><stop
         stop-color="#144b7e"
         offset="73.8%"
         id="stop5-36" /><stop
         stop-color="#136497"
         offset="87.3%"
         id="stop6-0" /><stop
         stop-color="#1387b8"
         offset="100%"
         id="stop7-626" /></linearGradient><linearGradient
       xlink:href="#A-9"
       id="linearGradient11"
       x1="8.4665003"
       y1="15.742398"
       x2="8.4665003"
       y2="1.1906016"
       gradientUnits="userSpaceOnUse" /><linearGradient
       xlink:href="#A-9"
       id="linearGradient3"
       gradientUnits="userSpaceOnUse"
       gradientTransform="scale(0.99946079,1.0005395)"
       x1="32.010761"
       y1="0"
       x2="32.010761"
       y2="63.965492" /></defs><metadata
     id="metadata17"><rdf:RDF><cc:Work
         rdf:about=""><dc:format>image/svg+xml</dc:format><dc:type
           rdf:resource="http://purl.org/dc/dcmitype/StillImage" /><dc:title /></cc:Work></rdf:RDF></metadata><rect
     x="4.5"
     y="4.5"
     width="55"
     height="55"
     ry="15"
     fill="#141414"
     filter="url(#filter1057)"
     opacity="0.3"
     stroke-linecap="round"
     stroke-width="2.7444"
     id="rect879"
     transform="scale(0.26457812)"
     rx="15" /><rect
     x="1.1906016"
     y="1.1906016"
     width="14.551797"
     height="14.551797"
     ry="3.9686718"
     fill="url(#linearGradient1053)"
     stroke-linecap="round"
     stroke-width="0.726108"
     id="rect881"
     style="display:inline;fill:url(#linearGradient11)"
     rx="3.9686718" /><path
     d="m 7.9837157,6.5412374 6.676e-4,0.035724 -1.7423794,2.5719157 C 5.9598408,9.1357633 5.6767876,9.1861842 5.407976,9.2985571 5.2909583,9.3468768 5.1792357,9.4075007 5.0746319,9.4794391 L 1.1906017,7.8711853 c 0,0 0,1.4976633 0,2.6064567 l 3.043104,1.116534 c 0.1335157,0.616807 0.5518648,1.157644 1.1664819,1.417662 1.0068413,0.425074 2.1622687,-0.05877 2.5819705,-1.081222 0.1075328,-0.261557 0.1594038,-0.543265 0.1522078,-0.826631 l 2.4907351,-1.8099499 0.06119,0.00113 c 1.492038,0 2.704805,-1.2358762 2.704805,-2.7539282 0,-1.5180521 -1.210542,-2.7494062 -2.704805,-2.7525716 -1.4913696,0 -2.7048045,1.2345195 -2.7048045,2.7525716 z M 7.5653667,11.7529 c -0.323553,0.791358 -1.2163278,1.163749 -1.9922763,0.835222 -0.344333,-0.14704 -0.6234351,-0.417591 -0.784182,-0.760156 l 0.8805358,0.370808 c 0.5720889,0.241962 1.2288843,-0.03334 1.4666696,-0.614773 0.2383915,-0.581659 -0.031983,-1.249588 -0.6041584,-1.492502 L 5.6195984,9.7082548 c 0.3511462,-0.1356615 0.750358,-0.1401835 1.1237568,0.01741 0.3782944,0.1589501 0.6675783,0.4583092 0.8224565,0.8411012 0.1548782,0.382791 0.1539881,0.804925 -0.00223,1.186134 M 10.688743,8.376059 C 9.6933331,8.373319 8.8875812,7.5531007 8.8867267,6.5416896 8.8878261,5.530455 9.6935066,4.7105117 10.688743,4.7077724 c 0.99541,0.00249 1.801362,0.8225064 1.802462,1.8339172 C 12.49035,7.553277 11.684327,8.3735681 10.688743,8.376059 M 9.3384547,6.5387503 C 9.3378395,5.778715 9.9434003,5.1619036 10.691413,5.1606556 c 0.746576,0 1.353849,0.6172598 1.353849,1.3780947 C 12.045631,7.298962 11.4396,7.9156439 10.691413,7.9163927 9.9434873,7.9152695 9.337863,7.2986972 9.3382322,6.5387503 Z"
     id="path3"
     style="display:inline;fill:#ffffff;stroke-width:0.224307" /></svg>
