<?xml version="1.0" encoding="UTF-8" standalone="no"?>
<svg
   width="64"
   height="64"
   version="1.1"
   viewBox="0 0 16.933 16.933"
   id="svg62"
   xml:space="preserve"
   sodipodi:docname="wechat.svg"
   inkscape:version="1.3.2 (091e20ef0f, 2023-11-25, custom)"
   xmlns:inkscape="http://www.inkscape.org/namespaces/inkscape"
   xmlns:sodipodi="http://sodipodi.sourceforge.net/DTD/sodipodi-0.dtd"
   xmlns:xlink="http://www.w3.org/1999/xlink"
   xmlns="http://www.w3.org/2000/svg"
   xmlns:svg="http://www.w3.org/2000/svg"
   xmlns:rdf="http://www.w3.org/1999/02/22-rdf-syntax-ns#"
   xmlns:cc="http://creativecommons.org/ns#"
   xmlns:dc="http://purl.org/dc/elements/1.1/"><sodipodi:namedview
     id="namedview1"
     pagecolor="#505050"
     bordercolor="#ffffff"
     borderopacity="1"
     inkscape:showpageshadow="0"
     inkscape:pageopacity="0"
     inkscape:pagecheckerboard="1"
     inkscape:deskcolor="#505050"
     inkscape:zoom="13.21875"
     inkscape:cx="31.962175"
     inkscape:cy="32"
     inkscape:window-width="1920"
     inkscape:window-height="1080"
     inkscape:window-x="0"
     inkscape:window-y="0"
     inkscape:window-maximized="1"
     inkscape:current-layer="svg62" /><defs
     id="defs15"><linearGradient
       id="linearGradient2"
       x1="-127"
       x2="-72"
       y1="60"
       y2="5"
       gradientTransform="matrix(0.26457812,0,0,0.26457812,34.792022,-0.1349349)"
       gradientUnits="userSpaceOnUse"><stop
         stop-color="#32d7ff"
         offset="0"
         id="stop1"
         style="stop-color:#00e36d;stop-opacity:1;" /><stop
         stop-color="#329bff"
         offset="1"
         id="stop2"
         style="stop-color:#05c361;stop-opacity:1;" /></linearGradient><style
       type="text/css"
       id="style841" /><filter
       id="filter1057"
       x="-0.026999999"
       y="-0.026999999"
       width="1.054"
       height="1.054"
       color-interpolation-filters="sRGB"><feGaussianBlur
         stdDeviation="0.61875"
         id="feGaussianBlur843" /></filter><linearGradient
       id="linearGradient1053"
       x1="-127"
       x2="-72"
       y1="60"
       y2="5"
       gradientTransform="matrix(0.26457812,0,0,0.26457812,34.792022,-0.1349349)"
       gradientUnits="userSpaceOnUse"><stop
         stop-color="#32d7ff"
         offset="0"
         id="stop846"
         style="stop-color:#ffffff;stop-opacity:1;" /><stop
         stop-color="#329bff"
         offset="1"
         id="stop848"
         style="stop-color:#ffffff;stop-opacity:1;" /></linearGradient><style
       type="text/css"
       id="style851" /><style
       type="text/css"
       id="style853" /><style
       type="text/css"
       id="style855" /><style
       type="text/css"
       id="style857" /><style
       type="text/css"
       id="style859" /><style
       type="text/css"
       id="style861" /><style
       type="text/css"
       id="style863" /><linearGradient
       xlink:href="#linearGradient2"
       id="linearGradient1"
       gradientUnits="userSpaceOnUse"
       gradientTransform="matrix(0.26457812,0,0,0.26457812,34.792022,-0.13493495)"
       x1="-101.46114"
       y1="5.1978555"
       x2="-101.17461"
       y2="59.9795" /><style
       id="style1">.cls-1{fill:none;}.cls-2{fill:#4e4e4e;}.cls-3{clip-path:url(#clip-path);}.cls-4{fill:url(#未命名的渐变_3);}.cls-5{clip-path:url(#clip-path-2);}.cls-6{fill:url(#未命名的渐变_30);}.cls-7{fill:#227b3d;}.cls-8{fill:#8c8c8c;}</style></defs><metadata
     id="metadata17"><rdf:RDF><cc:Work
         rdf:about=""><dc:format>image/svg+xml</dc:format><dc:type
           rdf:resource="http://purl.org/dc/dcmitype/StillImage" /><dc:title /></cc:Work></rdf:RDF></metadata><rect
     x="4.5"
     y="4.5"
     width="55"
     height="55"
     ry="15"
     fill="#141414"
     filter="url(#filter1057)"
     opacity="0.3"
     stroke-linecap="round"
     stroke-width="2.7444"
     id="rect879"
     transform="scale(0.26457812)"
     rx="15" /><rect
     x="1.1906016"
     y="1.1906016"
     width="14.551797"
     height="14.551797"
     ry="3.9686718"
     fill="url(#linearGradient1053)"
     stroke-linecap="round"
     stroke-width="0.726108"
     id="rect881-7"
     style="display:inline;fill:url(#linearGradient1)"
     rx="3.9686718" /><path
     style="display:inline;fill:#ffffff;fill-opacity:1"
     d="M 12.613762,12.904133 C 12.138713,12.620435 12.161581,12.625019 11.711459,12.72326 7.9349915,13.547485 5.5779706,9.3608089 8.7470079,7.4576304 12.312255,5.3165063 16.380338,9.4865169 13.223119,12.045892 c -0.205457,0.166552 -0.208364,0.191044 -0.07903,0.665785 0.148022,0.543341 0.09155,0.563836 -0.530327,0.192456 z M 9.9339617,9.2739236 C 10.336701,8.9094495 9.9214548,8.2652398 9.4354373,8.5005168 9.0565728,8.683922 9.0726017,9.1900252 9.4625792,9.3575043 9.5875871,9.41119 9.8297248,9.3682567 9.9339617,9.2739236 Z M 12.307316,9.2577321 C 12.565438,9.0211806 12.507104,8.653774 12.186806,8.4987204 11.990325,8.4036053 11.815213,8.4392656 11.654373,8.6071468 11.250176,9.029037 11.87621,9.6528106 12.307316,9.2577321 Z M 3.9585768,11.091679 C 3.9324376,11.042837 3.955818,10.900781 4.0451812,10.565482 4.1948347,10.003969 4.1981439,10.017096 3.828462,9.7057894 1.863313,8.0509518 2.2549669,5.328601 4.6284636,4.1450505 7.021076,2.9519678 10.090394,3.9352371 10.912799,6.1582644 c 0.166701,0.450604 0.166556,0.4524552 -0.03546,0.4554748 -0.09542,0.00143 -0.238979,0.00917 -0.319014,0.017201 -0.08003,0.00803 -0.230602,0.02328 -0.334593,0.033879 -2.0760344,0.2115961 -3.6422958,2.0428139 -3.2336033,3.7806158 0.032454,0.138 0.04911,0.260781 0.037013,0.272846 -0.064187,0.06402 -0.864402,-0.0011 -1.3192562,-0.107364 C 5.2523116,10.50449 5.2459096,10.505928 4.6466534,10.849357 4.0753281,11.176778 4.0154132,11.197879 3.9585768,11.091679 Z M 5.7339391,6.5049262 C 6.1602638,6.2013563 5.9747369,5.537597 5.4514491,5.4942621 5.2151677,5.474695 5.0198316,5.5914981 4.9064089,5.8201744 4.6568012,6.3234191 5.2728974,6.8332169 5.7339391,6.5049262 Z m 2.7428243,0.056339 C 8.7253638,6.455338 8.863923,6.1799239 8.7958319,5.9270527 8.620611,5.2763318 7.7025307,5.3814285 7.7025307,6.0522078 c 0,0.4070074 0.3986238,0.6691023 0.7742327,0.5090574 z"
     id="path5" /></svg>
